<svg width="38" height="33" viewBox="0 0 38 33" fill="none" xmlns="http://www.w3.org/2000/svg">
<path d="M1.01882 27.2563C1.01836 27.2554 1.01786 27.2542 1.01732 27.253C1.00959 27.2348 1 27.1998 1 27.1513C1 27.0525 1.03531 26.986 1.06488 26.953C1.0793 26.9369 1.09024 26.9308 1.0937 26.9292C1.09435 26.9289 1.09483 26.9287 1.09514 26.9286H36.9049C36.9052 26.9287 36.9057 26.9289 36.9063 26.9292C36.9098 26.9308 36.9207 26.9369 36.9351 26.953C36.9647 26.986 37 27.0525 37 27.1513C37 27.1988 36.9908 27.2313 36.9835 27.2482C36.9812 27.2535 36.9794 27.2569 36.9782 27.2588C35.7087 28.2953 30.3683 32 19 32C7.62284 32 2.28296 28.2895 1.01882 27.2563ZM15.7778 2.35714C15.7778 1.49911 16.3743 1 16.8889 1H21.1111C21.6257 1 22.2222 1.49911 22.2222 2.35714V9.86317C22.2222 10.7214 22.866 11.6071 23.8885 11.6071C24.5296 11.6071 25.0837 11.231 25.3603 10.685C25.3609 10.6838 25.3616 10.6826 25.3622 10.6814L28.0376 5.46006C32.0668 8.10482 34.835 13.0062 34.8889 18.6851V22.5714H3.11111V18.8571C3.11111 13.1059 5.89177 8.12924 9.96221 5.45963L12.6398 10.6852C12.9164 11.231 13.4704 11.6071 14.1115 11.6071C15.134 11.6071 15.7778 10.7214 15.7778 9.86317V2.35714Z" stroke="white" stroke-width="2"/>
</svg>
