<svg width="39" height="43" viewBox="0 0 39 43" fill="none" xmlns="http://www.w3.org/2000/svg">
<path d="M16.6561 0.00081577C16.2835 -0.000529826 15.9098 -0.000145373 15.535 0.00148856C13.7311 0.0100427 11.8984 0.058388 10.0501 0.128359L10.5848 2.52092C12.5097 2.2989 14.6199 2.13358 16.73 2.05093C17.8731 2.00614 19.0093 1.98249 20.1114 1.98845C23.4178 2.00604 26.4177 2.28929 28.3804 3.06512L29.2197 3.3971L28.845 4.23185C26.1071 10.3336 25.4739 16.2203 25.9029 21.9962C26.1147 15.1416 28.9076 9.04485 32.5741 1.22906C27.585 0.383253 22.2452 0.0197499 16.6561 0.000719342V0.00081577ZM19.2973 3.72908C18.4738 3.72975 17.6344 3.74676 16.7951 3.77963C12.8691 3.93342 8.95673 4.40341 6.40689 4.94223C9.2552 10.3322 11.5593 15.7346 13.0472 21.0011C13.2323 20.9948 13.4176 20.9963 13.6025 21.0055C13.9811 21.0244 14.3555 21.0768 14.7213 21.1583C13.2068 16.2183 11.4818 11.6622 9.33744 7.11306L8.85291 6.08522L9.95387 5.88645C12.7196 5.38685 15.5742 5.19347 18.2911 5.19261C18.4721 5.19261 18.6528 5.19328 18.8326 5.19491C20.5589 5.21029 22.2227 5.30141 23.7642 5.43856L24.8056 5.53131L24.5019 6.55175C22.7401 12.4688 22.395 18.8234 23.3911 24.8693C23.4077 24.885 23.4245 24.9006 23.4407 24.9164C23.7999 24.788 24.136 24.6571 24.4492 24.5172C23.6716 18.0397 24.0161 11.357 26.9203 4.41005C25.2997 3.98878 22.8292 3.76858 20.1145 3.73398C19.8421 3.73054 19.5697 3.72884 19.2973 3.72908ZM32.9528 4.43888C30.0364 10.7397 27.9649 15.789 27.6254 21.2399C29.5132 14.8193 33.1622 9.06369 37.3202 5.3659C35.8769 4.99861 34.42 4.68937 32.9528 4.43888ZM5.16395 6.21977C3.39653 6.59154 1.67 7.06346 0 7.7155C0.812673 8.43443 2.28181 9.77186 4.06431 11.5494C4.8847 10.6879 5.7214 9.83683 6.59409 9.06292C6.13187 8.10769 5.6551 7.15986 5.16395 6.21977ZM18.5442 6.9389C17.261 6.93256 15.9475 6.97004 14.6293 7.06317C14.491 8.37821 13.7287 9.60847 12.8181 10.8183C14.2719 14.3235 15.5275 17.9003 16.6578 21.6979C18.389 22.2188 20.1016 22.8346 21.489 23.5725C20.9737 19.4917 21.0441 15.3102 21.7132 11.2211C20.4993 9.94179 19.867 8.52122 19.8163 6.95937C19.3923 6.94785 18.9683 6.94102 18.5442 6.9389ZM35.6925 9.53254C33.3626 12.3487 31.3097 15.8758 29.9107 19.7122C32.4793 15.9847 35.6379 13.0772 39 11.0235C37.9046 10.5101 36.802 10.0131 35.6925 9.53254ZM7.35918 10.682C5.98425 11.9495 4.62571 13.4709 3.21093 14.9203C6.25294 16.7648 8.84396 18.9492 10.9576 21.4234C11.0888 21.3728 11.2214 21.3274 11.3547 21.2859C10.3657 17.8166 9.01025 14.2664 7.35918 10.682ZM29.347 22.6724C27.8022 24.5743 26.3479 25.5784 24.3453 26.3795C24.5706 27.2657 24.236 28.283 23.4659 29.0612C23.013 29.5188 22.4437 30.0404 21.6115 30.3794C21.7316 30.4519 21.8541 30.5201 21.9789 30.5838C23.1437 31.1768 25.2016 30.9856 27.1135 30.0985C29.0194 29.2143 30.722 27.6868 31.353 26.1395C31.6693 25.2697 31.4434 24.816 30.8898 24.1507C30.4956 23.6773 29.9198 23.2001 29.347 22.6725V22.6724ZM13.3236 22.7287C12.3141 22.7193 11.2889 23.0165 10.4416 23.6668C9.23664 24.5917 8.30771 26.2411 8.29942 29.0428V29.062L8.29847 29.0813C8.02338 34.9808 8.44921 37.7027 9.29288 39.1795C10.0375 40.483 11.276 41.1069 13.0877 42.2545C13.174 42.0233 13.2639 41.7389 13.3482 41.3801C13.5628 40.4671 13.7403 39.2132 13.8527 37.8263C14.0778 35.0526 14.0449 31.7221 13.6686 29.3255L13.4697 28.0577L14.6959 28.3456C17.6745 29.0446 19.3783 29.1272 20.3675 28.9492C21.3569 28.771 21.6922 28.4184 22.2726 27.832C22.818 27.281 22.8079 27.0828 22.6924 26.7727C22.5768 26.4625 22.1131 25.9514 21.3263 25.4624C19.7527 24.4843 17.0788 23.5775 14.5794 22.9012C14.1695 22.7905 13.7476 22.7326 13.3236 22.7287ZM31.139 29.4005C30.1957 30.338 29.0348 31.1076 27.8155 31.6734C25.8387 32.5905 23.6643 33.01 21.8603 32.3993C21.2234 32.6411 20.8534 32.919 20.6668 33.149C20.4107 33.4646 20.3947 33.6968 20.4815 34.0294C20.5682 34.3619 20.8268 34.7568 21.1465 35.0409C21.4662 35.325 21.8462 35.4726 21.9906 35.4796C26.3991 35.6931 28.3071 34.4024 30.6842 32.9053C31.3774 32.4688 31.6427 31.5844 31.5763 30.7014C31.543 30.2598 31.4171 29.8449 31.2717 29.5835C31.2356 29.5169 31.191 29.4553 31.139 29.4005ZM15.4822 30.2748C15.7392 32.6842 15.7434 35.4951 15.5427 37.969C15.4252 39.4176 15.2436 40.7351 14.9973 41.7833C14.8902 42.2395 14.7723 42.6439 14.6299 43L28.4505 42.3786C28.2945 41.7876 28.1355 41.1941 27.9765 40.6003C27.4455 40.7806 26.9028 40.9227 26.3523 41.0255L26.3565 41.0957L25.573 41.1455C25.0905 41.2045 24.5883 41.2371 24.0672 41.2408L16.1666 41.7416L16.4015 40.626C17.1502 37.0692 17.2192 33.9375 16.7574 30.5115C16.3308 30.4411 15.9057 30.3621 15.4821 30.2748H15.4822ZM18.4944 30.725C18.8663 33.7942 18.8216 36.7235 18.2677 39.875L20.0826 39.7601C19.798 39.3316 19.6024 38.8482 19.5079 38.3397C19.3858 37.6785 19.4537 36.9424 19.8778 36.3338C19.8965 36.3068 19.9168 36.281 19.9369 36.2549C19.4426 35.7892 19.0298 35.1917 18.8427 34.4745C18.6435 33.711 18.7679 32.7762 19.3606 32.0457C19.5564 31.8045 19.7932 31.5867 20.0712 31.3906C19.8253 31.1907 19.6098 30.9787 19.4236 30.758C19.1349 30.76 18.8258 30.749 18.4944 30.725ZM30.9931 34.7411C28.7833 36.111 26.3004 37.4204 21.9101 37.2078C21.7668 37.2006 21.6244 37.1809 21.4845 37.1487C21.3683 37.2018 21.3063 37.2694 21.2601 37.3358C21.1693 37.466 21.1157 37.701 21.1744 38.0195C21.292 38.6564 21.8834 39.3544 22.434 39.4198C26.333 39.8824 29.0269 38.5811 30.6626 37.0672C31.4163 36.3696 31.4227 35.9234 31.3117 35.4379C31.2561 35.1954 31.1337 34.9604 30.9931 34.7411ZM30.3635 39.4567C30.1018 39.624 29.8331 39.7799 29.5583 39.9238C29.7137 40.5054 29.8695 41.0869 30.0234 41.6686L31.9001 41.3253C31.4158 40.9037 31.0369 40.4647 30.7328 40.0282C30.5969 39.8331 30.4772 39.6436 30.3635 39.4567Z" fill="white"/>
</svg>
