<svg width="36" height="36" viewBox="0 0 36 36" fill="none" xmlns="http://www.w3.org/2000/svg">
<path d="M6.7236 10.5333C6.21354 10.6282 5.73086 10.895 5.26374 11.3029L0.202573 11.1474C0.311079 11.0412 0.542956 10.8379 0.791597 10.6198C1.08966 10.3584 1.41183 10.0759 1.57442 9.91421L1.92541 10.2703C1.92568 10.27 1.92595 10.2698 1.92622 10.2695C2.03445 10.1631 2.09238 10.1622 2.39696 10.1574C2.4466 10.1566 2.50279 10.1557 2.56681 10.1543C2.77609 10.1495 3.03627 10.1289 3.32699 10.0209C3.61867 9.91252 3.9125 9.72707 4.21501 9.42961L4.21543 9.4292C4.82322 8.83015 4.97697 8.14873 5.05892 7.62068C5.07323 7.52846 5.08474 7.44668 5.09523 7.37211C5.11693 7.21786 5.1343 7.09447 5.16316 6.97337C5.20249 6.80833 5.24597 6.73736 5.28472 6.69932L5.28479 6.69939L5.29154 6.6925C5.30551 6.67825 5.32658 6.65507 5.35564 6.6231C5.5858 6.3699 6.31717 5.56531 7.99022 4.27848L7.99161 4.2774C8.12545 4.1737 8.26977 4.06045 8.42332 3.93997C9.12519 3.38921 10.0198 2.68718 10.9874 2.05462C12.178 1.27615 13.4034 0.655406 14.4407 0.532725L14.4435 0.532371C14.5524 0.51886 14.8667 0.508325 15.3315 0.503421C15.7819 0.49867 16.3407 0.499224 16.9134 0.502898C17.3104 0.505445 17.7128 0.509482 18.0888 0.514255C17.3215 0.873451 16.3622 1.33687 15.4281 1.88816C14.2089 2.60763 12.9659 3.5139 12.2452 4.59338C11.8796 5.14094 11.6357 5.75192 11.6146 6.41688C11.5934 7.08607 11.7995 7.76438 12.2578 8.43878C12.6887 9.0804 13.1288 9.71412 13.5781 10.3397C13.3973 10.517 12.299 11.6264 11.5489 12.384C11.182 12.7547 10.8984 13.0411 10.8463 13.0932C10.8267 13.1123 10.8106 13.1283 10.7958 13.143C10.7933 13.1456 10.7907 13.1481 10.7882 13.1506C9.91285 12.0323 9.07872 11.1572 8.21366 10.7501C7.73807 10.5264 7.24041 10.4372 6.7236 10.5333ZM0.558088 11.7958C0.46581 11.6732 0.498124 11.5589 0.553555 11.5036L0.558088 11.7958ZM15.5223 13.0473L30.3494 32.4243L30.3499 32.4249C30.4407 32.5433 30.4928 32.7075 30.4822 32.8818C30.4717 33.0538 30.4022 33.2028 30.3044 33.3015L28.5564 34.9483L28.5564 34.9483L28.549 34.9555C28.3707 35.1306 28.1112 35.1232 27.9373 34.8986L27.9358 34.8967L12.9497 15.7258C12.9377 15.7083 12.9265 15.6778 12.9288 15.6401C12.931 15.6027 12.9452 15.5778 12.9553 15.5665L15.5223 13.0473ZM35.4021 4.63491L35.4022 4.63578C35.4652 5.10194 35.5351 6.29165 35.4802 7.59432C35.4246 8.91357 35.2438 10.2538 34.8548 11.0758L34.8544 11.0766C34.3957 12.0502 33.8125 12.7732 33.0484 13.1799C32.2924 13.5822 31.2861 13.7135 29.8979 13.3611C29.0808 13.1515 28.2462 13.2837 27.5363 13.5624C26.8304 13.8396 26.2063 14.2774 25.7934 14.7418L23.2116 17.4965L21.378 15.1038L23.5401 12.5703C24.6388 11.3247 24.904 10.0645 24.9721 8.82811C24.993 8.44874 24.9957 8.05084 24.9983 7.66296C24.9998 7.44451 25.0012 7.22924 25.0059 7.02225C25.0193 6.4272 25.0586 5.8426 25.1874 5.25007L25.1875 5.24944C25.4158 4.19314 26.3863 3.2235 27.499 2.44105C28.4203 1.79318 29.3446 1.33657 29.8179 1.10276C29.9005 1.06196 29.9694 1.02794 30.0221 1.00088C30.0241 1.0124 30.0254 1.02405 30.0259 1.0353C30.0264 1.04681 30.0261 1.05599 30.0256 1.06254C29.8065 1.44698 28.7344 3.54827 28.3794 4.30858C28.3619 4.34604 28.3421 4.38682 28.3208 4.43073C28.1487 4.78533 27.8777 5.34392 27.9157 6.007C27.9608 6.79102 28.4128 7.609 29.5135 8.48311C30.0587 8.9174 30.5779 9.1629 31.0739 9.23948C31.5776 9.31723 32.0204 9.21488 32.3924 9.01606C33.1055 8.63495 33.5403 7.90855 33.7614 7.49425L33.7616 7.49395C34.0602 6.93348 34.6455 5.9209 35.0659 5.1937C35.1981 4.96505 35.3139 4.76462 35.3994 4.61532C35.4003 4.62175 35.4012 4.62828 35.4021 4.63491ZM35.5931 4.32223C35.593 4.32228 35.5922 4.32291 35.5906 4.32392C35.5922 4.32268 35.5931 4.32218 35.5931 4.32223ZM14.0652 23.0682L16.1602 25.7537L7.5731 35.2429L7.57308 35.2429L7.56948 35.247C7.43937 35.3939 7.29059 35.474 7.17925 35.4945C7.0889 35.5111 7.02908 35.4927 6.96985 35.4258L6.96988 35.4257L6.96535 35.4207L5.25141 33.5368C5.25072 33.536 5.25003 33.5352 5.24934 33.5344C5.15521 33.4266 5.09437 33.2705 5.09437 33.0977C5.09437 32.9254 5.15491 32.7697 5.24864 32.6618L14.0652 23.0682Z" stroke="white"/>
</svg>
