<svg width="37" height="40" viewBox="0 0 37 40" fill="none" xmlns="http://www.w3.org/2000/svg">
<path d="M36.4154 0.18471C36.5941 0.295203 36.7415 0.449496 36.8438 0.632961C36.9461 0.816425 36.9999 1.02298 37 1.23304V38.233C37 38.5601 36.8701 38.8738 36.6388 39.1051C36.4075 39.3364 36.0938 39.4664 35.7667 39.4664H28.3667C28.0396 39.4664 27.7259 39.3364 27.4946 39.1051C27.2633 38.8738 27.1333 38.5601 27.1333 38.233V34.533H24.6667V38.233C24.6667 38.5601 24.5367 38.8738 24.3054 39.1051C24.0741 39.3364 23.7604 39.4664 23.4333 39.4664H1.23333C0.906233 39.4664 0.59253 39.3364 0.361235 39.1051C0.12994 38.8738 0 38.5601 0 38.233V24.6664C0.000196462 24.4076 0.0817653 24.1555 0.233162 23.9457C0.384558 23.7358 0.598113 23.5789 0.8436 23.4972L14.8 18.845V11.0997C14.8 10.8709 14.8637 10.6465 14.9839 10.4518C15.1042 10.2571 15.2762 10.0996 15.4808 9.99711L35.2141 0.130443C35.4024 0.0362311 35.6116 -0.00824213 35.8218 0.00125672C36.0321 0.0107556 36.2364 0.0739104 36.4154 0.18471ZM14.8 21.4449L2.46667 25.5544V36.9997H14.8V21.4449ZM17.2667 36.9997H22.2V33.2997C22.2 32.9726 22.3299 32.6589 22.5612 32.4276C22.7925 32.1963 23.1062 32.0664 23.4333 32.0664H28.3667C28.6938 32.0664 29.0075 32.1963 29.2388 32.4276C29.4701 32.6589 29.6 32.9726 29.6 33.2997V36.9997H34.5333V3.22858L17.2667 11.8619V36.9997Z" fill="white"/>
<path d="M4.93359 27.1332H7.40026V29.5999H4.93359V27.1332ZM9.86693 27.1332H12.3336V29.5999H9.86693V27.1332ZM4.93359 32.0666H7.40026V34.5332H4.93359V32.0666ZM9.86693 32.0666H12.3336V34.5332H9.86693V32.0666ZM19.7336 22.1999H22.2003V24.6666H19.7336V22.1999ZM24.6669 22.1999H27.1336V24.6666H24.6669V22.1999ZM19.7336 27.1332H22.2003V29.5999H19.7336V27.1332ZM24.6669 27.1332H27.1336V29.5999H24.6669V27.1332ZM29.6003 22.1999H32.0669V24.6666H29.6003V22.1999ZM29.6003 27.1332H32.0669V29.5999H29.6003V27.1332ZM19.7336 17.2666H22.2003V19.7332H19.7336V17.2666ZM24.6669 17.2666H27.1336V19.7332H24.6669V17.2666ZM29.6003 17.2666H32.0669V19.7332H29.6003V17.2666ZM19.7336 12.3332H22.2003V14.7999H19.7336V12.3332ZM24.6669 12.3332H27.1336V14.7999H24.6669V12.3332ZM29.6003 12.3332H32.0669V14.7999H29.6003V12.3332ZM29.6003 7.3999H32.0669V9.86657H29.6003V7.3999Z" fill="white"/>
</svg>
