<svg width="31" height="31" viewBox="0 0 31 31" fill="none" xmlns="http://www.w3.org/2000/svg">
<path d="M15.5 0C13.6027 0 11.7831 0.753707 10.4415 2.09531C9.09986 3.43692 8.34615 5.25653 8.34615 7.15385C8.34615 11.1052 14.5688 20.9167 14.5688 26.2308H16.4312C16.4312 20.9345 22.6538 10.7832 22.6538 7.15385C22.6538 5.25653 21.9001 3.43692 20.5585 2.09531C19.2169 0.753707 17.3973 0 15.5 0ZM15.5 3.57692C16.4487 3.57692 17.3585 3.95378 18.0293 4.62458C18.7001 5.29538 19.0769 6.20519 19.0769 7.15385C19.0769 8.10251 18.7001 9.01231 18.0293 9.68311C17.3585 10.3539 16.4487 10.7308 15.5 10.7308C14.5513 10.7308 13.6415 10.3539 12.9707 9.68311C12.2999 9.01231 11.9231 8.10251 11.9231 7.15385C11.9231 6.20519 12.2999 5.29538 12.9707 4.62458C13.6415 3.95378 14.5513 3.57692 15.5 3.57692ZM8.16015 20.6043C8.13467 20.6161 8.10962 20.6288 8.08504 20.6424C5.88523 21.0287 4.02046 21.5581 2.60877 22.2818C1.90173 22.6431 1.29246 23.0712 0.820308 23.585C0.346962 24.1001 0 24.769 0 25.5225C0 26.6528 0.748769 27.5363 1.63942 28.1683C2.53008 28.8002 3.65442 29.2831 5.03035 29.6956C7.77862 30.5207 11.4521 31 15.5 31C19.5479 31 23.2214 30.5207 25.9697 29.6956C27.3444 29.2831 28.4699 28.8014 29.3606 28.1683C30.2512 27.5363 31 26.6528 31 25.5225C31 24.7666 30.6542 24.0632 30.1797 23.5481C29.7052 23.033 29.1018 22.6431 28.3912 22.2807C26.9724 21.5569 25.0897 21.0275 22.8768 20.6412C22.7212 20.6111 22.5612 20.6122 22.406 20.6447C22.2509 20.6771 22.1038 20.7401 21.9733 20.8301C21.8428 20.92 21.7316 21.0351 21.646 21.1685C21.5605 21.302 21.5025 21.4511 21.4753 21.6072C21.4481 21.7634 21.4523 21.9234 21.4877 22.0779C21.5231 22.2323 21.5889 22.3782 21.6813 22.507C21.7737 22.6357 21.8909 22.7448 22.0259 22.8277C22.161 22.9107 22.3112 22.9659 22.4678 22.9901C24.5222 23.3478 26.2296 23.8545 27.311 24.4053C27.8523 24.6796 28.2327 24.9741 28.4294 25.1875C28.6261 25.4009 28.6154 25.4856 28.6154 25.5225C28.6154 25.5786 28.5391 25.8361 27.9823 26.2308C27.4255 26.6254 26.4764 27.0582 25.2614 27.4231C22.8327 28.1516 19.3535 28.6154 15.5 28.6154C11.6465 28.6154 8.16731 28.1516 5.73738 27.4231C4.52362 27.0582 3.57454 26.6254 3.01892 26.2308C2.46092 25.8361 2.38462 25.5786 2.38462 25.5225C2.38462 25.4868 2.37627 25.3997 2.57062 25.1875C2.76615 24.9753 3.15127 24.6796 3.689 24.4053C4.76208 23.8557 6.45277 23.349 8.49519 22.9889C8.65407 22.9696 8.80751 22.9188 8.94654 22.8396C9.08558 22.7603 9.20741 22.6541 9.30493 22.5272C9.40245 22.4003 9.47369 22.2552 9.5145 22.1005C9.55531 21.9457 9.56485 21.7844 9.54259 21.6259C9.52032 21.4674 9.46668 21.3149 9.38481 21.1774C9.30294 21.0399 9.19448 20.9201 9.06577 20.825C8.93706 20.7298 8.79067 20.6613 8.63518 20.6234C8.47968 20.5855 8.3182 20.579 8.16015 20.6043Z" fill="white"/>
</svg>
