<svg width="36" height="36" viewBox="0 0 36 36" fill="none" xmlns="http://www.w3.org/2000/svg">
<path fill-rule="evenodd" clip-rule="evenodd" d="M15.058 1.52C12.36 2.504 10.244 4.805 9.399 7.694C7.898 8.464 7 9.44 7 10.5C7 11.698 8.144 12.787 10.01 13.593C9.9558 14.6759 10.1223 15.7585 10.4994 16.7751C10.8764 17.7916 11.4562 18.7209 12.2035 19.5065C12.9508 20.2921 13.8499 20.9177 14.8464 21.3451C15.8428 21.7725 16.9158 21.9929 18 21.9929C19.0842 21.9929 20.1572 21.7725 21.1536 21.3451C22.1501 20.9177 23.0492 20.2921 23.7965 19.5065C24.5438 18.7209 25.1236 17.7916 25.5006 16.7751C25.8777 15.7585 26.0442 14.6759 25.99 13.593C27.856 12.787 29 11.698 29 10.5C29 9.439 28.102 8.464 26.6 7.694C25.755 4.804 23.64 2.504 20.942 1.519C20.8345 1.08525 20.5849 0.699981 20.2329 0.424665C19.8809 0.149348 19.4469 -0.000156659 19 1.23185e-07H17C16.553 -0.000101394 16.1188 0.149547 15.7668 0.425058C15.4148 0.70057 15.1653 1.08606 15.058 1.52ZM16 6C16.2652 6 16.5196 5.89464 16.7071 5.70711C16.8946 5.51957 17 5.26522 17 5V2H19V5C19 5.26522 19.1054 5.51957 19.2929 5.70711C19.4804 5.89464 19.7348 6 20 6C20.2652 6 20.5196 5.89464 20.7071 5.70711C20.8946 5.51957 21 5.26522 21 5V3.722C22.587 4.532 23.868 5.975 24.525 7.778C24.5221 7.78962 24.5194 7.80128 24.517 7.813C24.4672 7.85221 24.4147 7.88796 24.36 7.92C24.074 8.09 23.602 8.276 22.948 8.446C21.655 8.783 19.867 9 18 9C16.133 9 14.345 8.783 13.052 8.446C12.398 8.276 11.926 8.09 11.64 7.92C11.5853 7.88796 11.5328 7.85221 11.483 7.813L11.481 7.804C11.4792 7.7953 11.4772 7.78663 11.475 7.778C12.132 5.975 13.413 4.531 15 3.722V5C15 5.26522 15.1054 5.51957 15.2929 5.70711C15.4804 5.89464 15.7348 6 16 6ZM10.344 9.458L10.311 9.474C9.704 9.785 9.337 10.081 9.144 10.302C9.08871 10.361 9.04223 10.4277 9.006 10.5C9.027 10.548 9.088 10.652 9.255 10.814C9.568 11.117 10.126 11.482 10.979 11.831C12.675 12.525 15.157 13 18 13C20.843 13 23.325 12.525 25.02 11.83C25.874 11.482 26.432 11.117 26.745 10.814C26.912 10.652 26.973 10.548 26.994 10.5C26.9578 10.4277 26.9113 10.361 26.856 10.302C26.663 10.081 26.296 9.785 25.689 9.474L25.656 9.458C25.5682 9.52227 25.4775 9.58233 25.384 9.638C24.867 9.946 24.189 10.19 23.451 10.382C21.961 10.77 20 11 18 11C16 11 14.039 10.77 12.549 10.382C11.811 10.19 11.133 9.946 10.616 9.637C10.5225 9.58133 10.4318 9.52127 10.344 9.457V9.458ZM27.004 10.528L27 10.52L27.002 10.53L27.004 10.528ZM27.004 10.47C27.003 10.47 27.002 10.473 27.001 10.48C27.0018 10.4774 27.0025 10.4747 27.003 10.472V10.469L27.004 10.47ZM8.998 10.476L8.997 10.47L8.999 10.48L8.998 10.476ZM8.998 10.524V10.519V10.522L8.997 10.528L8.998 10.524ZM23.994 14.274C22.27 14.734 20.21 15 18 15C15.79 15 13.73 14.733 12.006 14.274C12.0751 15.8173 12.7368 17.2745 13.8533 18.3422C14.9698 19.4099 16.4551 20.0057 18 20.0057C19.5449 20.0057 21.0302 19.4099 22.1467 18.3422C23.2632 17.2745 23.9249 15.8173 23.994 14.274ZM28.685 20.594C28.741 20.4177 28.7471 20.2294 28.7025 20.0499C28.6579 19.8704 28.5644 19.7068 28.4323 19.5773C28.3003 19.4478 28.135 19.3574 27.9547 19.3162C27.7744 19.275 27.5862 19.2846 27.411 19.344C26.2519 19.7381 25.2275 20.4515 24.4559 21.402C23.6843 22.3525 23.1967 23.5016 23.0493 24.717C22.9018 25.9324 23.1006 27.1648 23.6226 28.2722C24.1446 29.3797 24.9687 30.3172 26 30.977V35C26 35.2652 26.1054 35.5196 26.2929 35.7071C26.4804 35.8946 26.7348 36 27 36H32C32.2652 36 32.5196 35.8946 32.7071 35.7071C32.8946 35.5196 33 35.2652 33 35V30.978C34.0319 30.3184 34.8565 29.3808 35.3789 28.2731C35.9013 27.1654 36.1002 25.9326 35.9528 24.7169C35.8053 23.5011 35.3175 22.3516 34.5455 21.4009C33.7735 20.4502 32.7486 19.7368 31.589 19.343C31.4137 19.2835 31.2254 19.2739 31.045 19.3151C30.8645 19.3563 30.6991 19.4468 30.567 19.5764C30.435 19.7061 30.3415 19.8699 30.297 20.0496C30.2525 20.2292 30.2587 20.4177 30.315 20.594C30.3237 20.621 30.331 20.6483 30.337 20.676L30.894 23.276C30.938 23.4836 30.9351 23.6984 30.8855 23.9048C30.8359 24.1111 30.7408 24.3038 30.6072 24.4687C30.4736 24.6336 30.3049 24.7665 30.1133 24.8579C29.9218 24.9492 29.7122 24.9966 29.5 24.9966C29.2878 24.9966 29.0782 24.9492 28.8867 24.8579C28.6951 24.7665 28.5264 24.6336 28.3928 24.4687C28.2592 24.3038 28.1641 24.1111 28.1145 23.9048C28.0649 23.6984 28.062 23.4836 28.106 23.276L28.663 20.676C28.669 20.6483 28.6763 20.621 28.685 20.594ZM32.849 22.857L32.749 22.385C33.2352 22.8918 33.596 23.5054 33.8025 24.1766C34.0091 24.8479 34.0557 25.5581 33.9386 26.2506C33.8215 26.9431 33.5439 27.5985 33.1281 28.1645C32.7123 28.7304 32.1698 29.1912 31.544 29.51C31.3738 29.5968 31.232 29.7305 31.1355 29.8953C31.0389 30.0601 30.9915 30.2491 30.999 30.44L31 30.5V34H28V30.492L28.001 30.44C28.0086 30.2492 27.9614 30.0603 27.865 29.8955C27.7686 29.7307 27.627 29.5969 27.457 29.51C26.8312 29.1912 26.2887 28.7304 25.8729 28.1645C25.4571 27.5985 25.1795 26.9431 25.0624 26.2506C24.9453 25.5581 24.9919 24.8479 25.1985 24.1766C25.405 23.5054 25.7658 22.8918 26.252 22.385L26.151 22.857C26.044 23.3564 26.0501 23.8733 26.1687 24.37C26.2873 24.8667 26.5155 25.3306 26.8365 25.7278C27.1576 26.1249 27.5634 26.4452 28.0243 26.6653C28.4851 26.8853 28.9893 26.9995 29.5 26.9995C30.0107 26.9995 30.5149 26.8853 30.9757 26.6653C31.4366 26.4452 31.8424 26.1249 32.1635 25.7278C32.4845 25.3306 32.7127 24.8667 32.8313 24.37C32.9499 23.8733 32.956 23.3564 32.849 22.857ZM12.353 22.608L17 26.222V29.897C17.205 29.949 17.525 30 18 30C18.475 30 18.795 29.95 19 29.897V26L21 24.5V36H0V30C0 26.339 6.52 23.727 12.353 22.608ZM8.475 30.268L15 29.181V34H7V26.18C8.09529 25.7596 9.2138 25.4023 10.35 25.11L8.475 30.268ZM2 34H5V27.079L4.926 27.118C3.862 27.682 3.084 28.257 2.594 28.798C2.114 29.33 2 29.723 2 30V34ZM18 32C17.622 32 17.29 31.975 17 31.933V34H19V31.933C18.71 31.975 18.378 32 18 32ZM14.95 27.161L12.442 25.211L11.525 27.732L14.95 27.161Z" fill="white"/>
</svg>
