<svg width="36" height="35" viewBox="0 0 36 35" fill="none" xmlns="http://www.w3.org/2000/svg">
<path d="M24.1818 23C24.1818 21.2636 19.3384 19.8571 13.3636 19.8571M24.1818 23C24.1818 24.7364 19.3384 26.1429 13.3636 26.1429C7.38891 26.1429 2.54545 24.7364 2.54545 23M24.1818 23V30.7581C24.1818 32.548 19.3384 34 13.3636 34C7.38891 34 2.54545 32.5496 2.54545 30.7581V23M24.1818 23C30.0916 23 35 21.449 35 19.8571V4.14286M13.3636 19.8571C7.38891 19.8571 2.54545 21.2636 2.54545 23M13.3636 19.8571C6.53582 19.8571 1 18.3061 1 16.7143V8.85714M13.3636 5.71429C6.53582 5.71429 1 7.12071 1 8.85714M1 8.85714C1 10.5936 6.53582 12 13.3636 12C13.3636 13.5919 18.391 15.1429 24.3008 15.1429C30.2091 15.1429 35 13.5919 35 12M35 4.14286C35 2.40643 30.2091 1 24.3008 1C18.391 1 13.6016 2.40643 13.6016 4.14286M35 4.14286C35 5.87929 30.2091 7.28571 24.3008 7.28571C18.3925 7.28571 13.6016 5.87929 13.6016 4.14286M13.6016 4.14286V20.118" stroke="white" stroke-width="2"/>
</svg>
