<svg width="37" height="34" viewBox="0 0 37 34" fill="none" xmlns="http://www.w3.org/2000/svg">
<path d="M36.4713 27.8951L22.0272 2.07749C21.6663 1.44497 21.151 0.920515 20.5324 0.556109C19.9139 0.191704 19.2135 0 18.5008 0C17.7881 0 17.0878 0.191704 16.4692 0.556109C15.8507 0.920515 15.3354 1.44497 14.9744 2.07749L0.530316 27.8951C0.183023 28.5069 0 29.2028 0 29.9113C0 30.6199 0.183023 31.3157 0.530316 31.9275C0.886638 32.5638 1.40104 33.0912 2.02075 33.4553C2.64045 33.8195 3.34314 34.0074 4.0567 33.9998H32.945C33.658 34.0068 34.36 33.8186 34.979 33.4545C35.5981 33.0903 36.112 32.5633 36.468 31.9275C36.8158 31.316 36.9994 30.6203 37 29.9118C37.0006 29.2032 36.8181 28.5072 36.4713 27.8951ZM34.1804 30.5658C34.0545 30.7869 33.8737 30.9695 33.6566 31.095C33.4395 31.2205 33.1939 31.2842 32.945 31.2798H4.0567C3.80775 31.2842 3.56213 31.2205 3.34503 31.095C3.12793 30.9695 2.94715 30.7869 2.82123 30.5658C2.70717 30.3671 2.647 30.1405 2.647 29.9096C2.647 29.6788 2.70717 29.4522 2.82123 29.2534L17.2654 3.43578C17.3938 3.21575 17.5754 3.03369 17.7925 2.90729C18.0096 2.78089 18.2547 2.71446 18.5041 2.71446C18.7535 2.71446 18.9987 2.78089 19.2158 2.90729C19.4328 3.03369 19.6144 3.21575 19.7429 3.43578L34.187 29.2534C34.3001 29.4528 34.3591 29.6797 34.358 29.9105C34.3568 30.1414 34.2955 30.3677 34.1804 30.5658ZM17.1795 20.3999V13.6C17.1795 13.2393 17.3187 12.8934 17.5665 12.6383C17.8143 12.3833 18.1504 12.24 18.5008 12.24C18.8513 12.24 19.1874 12.3833 19.4352 12.6383C19.683 12.8934 19.8222 13.2393 19.8222 13.6V20.3999C19.8222 20.7606 19.683 21.1065 19.4352 21.3616C19.1874 21.6166 18.8513 21.7599 18.5008 21.7599C18.1504 21.7599 17.8143 21.6166 17.5665 21.3616C17.3187 21.1065 17.1795 20.7606 17.1795 20.3999ZM20.4829 26.5199C20.4829 26.9233 20.3666 27.3177 20.1488 27.6532C19.931 27.9887 19.6215 28.2501 19.2593 28.4045C18.8971 28.5589 18.4986 28.5993 18.1141 28.5206C17.7297 28.4419 17.3765 28.2476 17.0993 27.9623C16.8221 27.677 16.6333 27.3135 16.5569 26.9178C16.4804 26.5221 16.5196 26.1119 16.6697 25.7392C16.8197 25.3664 17.0737 25.0478 17.3997 24.8237C17.7256 24.5995 18.1088 24.4799 18.5008 24.4799C19.0265 24.4799 19.5306 24.6948 19.9023 25.0774C20.274 25.4599 20.4829 25.9788 20.4829 26.5199Z" fill="white"/>
</svg>
