<svg width="68" height="76" viewBox="0 0 68 76" fill="none" xmlns="http://www.w3.org/2000/svg">
<path d="M44.2833 31.7237V32.2237H44.7833C45.7736 32.2237 46.7916 32.675 47.5661 33.4147C48.3391 34.153 48.8333 35.1434 48.8333 36.1838V48.192C48.8333 49.0376 48.3607 49.9383 47.5386 50.6429C46.7221 51.3429 45.6034 51.8091 44.4042 51.8091H23.55C22.5598 51.8091 21.5417 51.3578 20.7672 50.6181C19.9942 49.8797 19.5 48.8893 19.5 47.8489V35.8407C19.5 34.9926 19.9753 34.0887 20.7574 33.381C21.5361 32.6764 22.5583 32.2237 23.55 32.2237H24.05V31.7237V26.5773C24.05 24.3707 25.2696 22.3597 27.1741 20.8825C29.0783 19.4057 31.6249 18.5 34.1667 18.5C36.7084 18.5 39.2551 19.4057 41.1592 20.8825C43.0637 22.3597 44.2833 24.3707 44.2833 26.5773V31.7237ZM39.8542 32.2237H40.3542V31.7237V26.5773C40.3542 25.0249 39.5971 23.7687 38.4454 22.9161C37.3027 22.07 35.7717 21.6171 34.1667 21.6171C32.5616 21.6171 31.0306 22.07 29.8879 22.9161C28.7362 23.7687 27.9792 25.0249 27.9792 26.5773V31.7237V32.2237H28.4792H39.8542Z" fill="#282828" stroke="black"/>
<path d="M33.8595 68.5759L34 68.617L34.1405 68.5759C49.0089 64.2216 60 49.9714 60 34.542V16.378V16.0116L59.6506 15.9012L34.1506 7.84523L34 7.79764L33.8494 7.84523L8.34938 15.9012L8 16.0116V16.378V34.542C8 50.0097 18.9914 64.2216 33.8595 68.5759ZM0.5 11.7597L34 0.527357L67.5 11.7597V34.542C67.5 53.4538 53.2321 71.1245 34 75.4874C14.7679 71.1245 0.5 53.4538 0.5 34.542V11.7597Z" fill="#282828" stroke="black"/>
</svg>
