<svg width="68" height="76" viewBox="0 0 68 76" fill="none" xmlns="http://www.w3.org/2000/svg">
<path d="M33.8595 68.5758L34 68.617L34.1405 68.5758C49.0089 64.2215 60 49.9714 60 34.542V16.378V16.0116L59.6506 15.9012L34.1506 7.84523L34 7.79764L33.8494 7.84523L8.34938 15.9012L8 16.0116V16.378V34.542C8 50.0097 18.9914 64.2216 33.8595 68.5758ZM29.2051 41.0715L29.5383 41.368L29.8708 41.0707L47.5575 25.2567L52.7999 29.944L29.495 50.7813L15.2016 38.0013L20.4846 33.311L29.2051 41.0715ZM0.5 11.7597L34 0.527357L67.5 11.7597V34.542C67.5 53.4538 53.2321 71.1245 34 75.4874C14.7679 71.1245 0.5 53.4538 0.5 34.542V11.7597Z" fill="#282828" stroke="black"/>
</svg>
