<svg width="68" height="77" viewBox="0 0 68 77" fill="none" xmlns="http://www.w3.org/2000/svg">
<path d="M47.9986 36.9185C48.0248 38.597 47.6821 40.2635 46.9904 41.8211C46.2987 43.3787 45.2717 44.7964 43.9692 45.9917C42.6668 47.1871 41.1147 48.1363 39.4033 48.7842C37.6918 49.432 35.8552 49.7657 34 49.7657C32.1448 49.7657 30.3082 49.432 28.5967 48.7842C26.8853 48.1363 25.3332 47.1871 24.0308 45.9917C22.7283 44.7964 21.7013 43.3787 21.0096 41.8211C20.3179 40.2635 19.9752 38.597 20.0014 36.9185C20.0534 33.5901 21.5512 30.414 24.1708 28.0769C26.7903 25.7399 30.3213 24.4297 34 24.4297C37.6787 24.4297 41.2097 25.7399 43.8292 28.0769C46.4488 30.414 47.9466 33.5901 47.9986 36.9185Z" stroke="#282828" stroke-width="3"/>
<path d="M39.544 41.9444C39.844 40.4091 40 38.7622 40 37.0977C40 35.4331 39.844 33.7863 39.544 32.2509C39.2843 30.845 38.8478 29.4666 38.242 28.1389C37.687 26.9633 37.024 26.0309 36.295 25.395C35.569 24.7565 34.789 24.4297 34 24.4297C33.211 24.4297 32.431 24.7591 31.705 25.3925C30.976 26.0309 30.316 26.9633 29.755 28.1389C29.1502 29.4667 28.7147 30.8451 28.456 32.2509C28.156 33.7863 28 35.4331 28 37.0977C28 38.7622 28.156 40.4091 28.456 41.9444C28.756 43.4823 29.2 44.8784 29.758 46.0565C30.313 47.2321 30.976 48.1644 31.705 48.8004C32.431 49.4388 33.211 49.7657 34 49.7657C34.789 49.7657 35.569 49.4363 36.295 48.8029C37.024 48.1644 37.684 47.2321 38.245 46.0539C38.8496 44.727 39.2851 43.3494 39.544 41.9444Z" stroke="#282828" stroke-width="3"/>
<path d="M20 37.0977H48" stroke="#282828" stroke-width="3" stroke-linecap="round"/>
<path d="M33.8579 69.3932L34 69.4354L34.1421 69.3932C49.013 64.9859 60 50.5648 60 34.9569V16.5747V16.2096L59.6523 16.0985L34.1523 7.9457L34 7.89702L33.8477 7.9457L8.34773 16.0985L8 16.2096V16.5747V34.9569C8 50.6036 18.9873 64.986 33.8579 69.3932ZM0.5 11.8953L34 0.528001L67.5 11.8953V34.9569C67.5 54.1027 53.2283 71.9848 34 76.3999C14.7717 71.9848 0.5 54.1027 0.5 34.9569V11.8953Z" fill="#282828" stroke="black"/>
</svg>
