<svg width="68" height="77" viewBox="0 0 68 77" fill="none" xmlns="http://www.w3.org/2000/svg">
<path d="M33.8579 69.3932L34 69.4354L34.1421 69.3932C49.013 64.9859 60 50.5648 60 34.9569V16.5747V16.2096L59.6523 16.0985L34.1523 7.9457L34 7.89702L33.8477 7.9457L8.34773 16.0985L8 16.2096V16.5747V34.9569C8 50.6036 18.9873 64.986 33.8579 69.3932ZM0.5 11.8953L34 0.528001L67.5 11.8953V34.9569C67.5 54.1027 53.2283 71.9848 34 76.3999C14.7717 71.9848 0.5 54.1027 0.5 34.9569V11.8953Z" fill="#282828" stroke="black"/>
<path d="M31.0833 39.707V43.332H34.7083V46.957H38.3333V49.3737L40.7499 51.7904H46.7916V46.957L34.3941 34.5595C34.5995 33.8949 34.7083 33.182 34.7083 32.457C34.7083 28.4574 31.4578 25.207 27.4583 25.207C23.4587 25.207 20.2083 28.4574 20.2083 32.457C20.2094 33.6683 20.5138 34.86 21.0936 35.9235C21.6734 36.987 22.5103 37.8884 23.5278 38.5455C24.5453 39.2026 25.7112 39.5946 26.919 39.6856C28.1269 39.7766 29.3383 39.5638 30.4428 39.0666L31.0833 39.707ZM26.2499 32.457C25.9294 32.457 25.6221 32.3297 25.3955 32.1031C25.1689 31.8765 25.0416 31.5692 25.0416 31.2487C25.0416 30.9282 25.1689 30.6209 25.3955 30.3943C25.6221 30.1677 25.9294 30.0404 26.2499 30.0404C26.5704 30.0404 26.8777 30.1677 27.1043 30.3943C27.3309 30.6209 27.4583 30.9282 27.4583 31.2487C27.4583 31.5692 27.3309 31.8765 27.1043 32.1031C26.8777 32.3297 26.5704 32.457 26.2499 32.457Z" stroke="#282828" stroke-width="2"/>
</svg>
