<svg width="68" height="77" viewBox="0 0 68 77" fill="none" xmlns="http://www.w3.org/2000/svg">
<path d="M33.8579 69.3932L34 69.4354L34.1421 69.3932C49.013 64.9859 60 50.5648 60 34.9569V16.5747V16.2096L59.6523 16.0985L34.1523 7.9457L34 7.89702L33.8477 7.9457L8.34773 16.0985L8 16.2096V16.5747V34.9569C8 50.6036 18.9873 64.986 33.8579 69.3932ZM0.5 11.8953L34 0.528001L67.5 11.8953V34.9569C67.5 54.1027 53.2283 71.9848 34 76.3999C14.7717 71.9848 0.5 54.1027 0.5 34.9569V11.8953Z" fill="#282828" stroke="black"/>
<path d="M49.7479 34.6061L48.53 33.3685C48.1936 33.0267 47.6484 33.0267 47.312 33.3685L46.7033 33.987L45.1479 32.4066C45.4509 31.2412 45.1673 29.9511 44.268 29.0373L41.8327 26.5627C38.47 23.1458 33.0176 23.1458 29.6544 26.5627L34.5256 29.0373V30.0627C34.5256 30.9907 34.8883 31.881 35.5347 32.5373L38.1794 35.2246C39.0787 36.1384 40.3483 36.4266 41.4952 36.1188L43.0506 37.6992L42.4419 38.3177C42.1055 38.6595 42.1055 39.2135 42.4419 39.5553L43.6598 40.7929C43.9962 41.1347 44.5414 41.1347 44.8778 40.7929L49.749 35.8431C50.0843 35.5019 50.0843 34.9479 49.7479 34.6061ZM34.3168 33.7748C34.1177 33.5725 33.9487 33.3488 33.7867 33.1213L20.0573 46.1462C18.6812 47.4522 18.644 49.6566 19.975 51.0096C21.3059 52.3626 23.4759 52.3248 24.7611 50.9259L37.5772 36.9768C37.364 36.8177 37.152 36.6558 36.9615 36.4622L34.3168 33.7748Z" fill="#282828"/>
</svg>
