<svg width="68" height="77" viewBox="0 0 68 77" fill="none" xmlns="http://www.w3.org/2000/svg">
<path d="M33.8579 69.3932L34 69.4354L34.1421 69.3932C49.013 64.9859 60 50.5648 60 34.9569V16.5747V16.2096L59.6523 16.0985L34.1523 7.9457L34 7.89702L33.8477 7.9457L8.34773 16.0985L8 16.2096V16.5747V34.9569C8 50.6036 18.9873 64.986 33.8579 69.3932ZM0.5 11.8953L34 0.528001L67.5 11.8953V34.9569C67.5 54.1027 53.2283 71.9848 34 76.3999C14.7717 71.9848 0.5 54.1027 0.5 34.9569V11.8953Z" fill="#282828" stroke="black"/>
<path d="M34 43.2105C26.8175 43.2105 21 46.1311 21 49.7368V53H47V49.7368C47 46.1311 41.1825 43.2105 34 43.2105ZM27.5 33.4211C27.5 35.1519 28.1848 36.8119 29.4038 38.0359C30.6228 39.2598 32.2761 39.9474 34 39.9474C35.7239 39.9474 37.3772 39.2598 38.5962 38.0359C39.8152 36.8119 40.5 35.1519 40.5 33.4211M33.1875 22C32.7 22 32.375 22.3426 32.375 22.8158V27.7105H30.75V23.6316C30.75 23.6316 27.0938 25.0347 27.0938 29.75C27.0938 29.75 25.875 29.9784 25.875 31.7895H42.125C42.0438 29.9784 40.9062 29.75 40.9062 29.75C40.9062 25.0347 37.25 23.6316 37.25 23.6316V27.7105H35.625V22.8158C35.625 22.3426 35.3162 22 34.8125 22H33.1875Z" fill="#282828"/>
</svg>
