<svg width="68" height="77" viewBox="0 0 68 77" fill="none" xmlns="http://www.w3.org/2000/svg">
<path d="M33.8579 69.3932L34 69.4354L34.1421 69.3932C49.013 64.9859 60 50.5648 60 34.9569V16.5747V16.2096L59.6523 16.0985L34.1523 7.9457L34 7.89702L33.8477 7.9457L8.34773 16.0985L8 16.2096V16.5747V34.9569C8 50.6036 18.9873 64.986 33.8579 69.3932ZM0.5 11.8953L34 0.528001L67.5 11.8953V34.9569C67.5 54.1027 53.2283 71.9848 34 76.3999C14.7717 71.9848 0.5 54.1027 0.5 34.9569V11.8953Z" fill="#282828" stroke="black"/>
<path d="M44.7156 30.7531L36.6219 22.6594C36.3906 22.4281 36.1594 22.3125 35.8125 22.3125H24.25C22.9781 22.3125 21.9375 23.3531 21.9375 24.625V52.375C21.9375 53.6469 22.9781 54.6875 24.25 54.6875H42.75C44.0219 54.6875 45.0625 53.6469 45.0625 52.375V31.5625C45.0625 31.2156 44.9469 30.9844 44.7156 30.7531ZM35.8125 25.0875L42.2875 31.5625H35.8125V25.0875ZM42.75 52.375H24.25V24.625H33.5V31.5625C33.5 32.8344 34.5406 33.875 35.8125 33.875H42.75V52.375Z" fill="#282828"/>
<path d="M26.5625 45.4375H40.4375V47.75H26.5625V45.4375ZM26.5625 38.5H40.4375V40.8125H26.5625V38.5Z" fill="#282828"/>
</svg>
