<svg width="41" height="53" viewBox="0 0 41 53" fill="none" xmlns="http://www.w3.org/2000/svg">
<path d="M0.30127 31.3525H7.23509L17.1836 41.3011H9.94833L0.30127 31.3525Z" fill="#F7912C"/>
<path d="M0 19.2939H7.53677L40.3971 52.4557H33.1618L0 19.2939Z" fill="#F7912C"/>
<path d="M26.8309 12.5099L26.8309 7.38489L12.0589 7.38481L17.1839 12.5098L26.8309 12.5099Z" fill="#092D55"/>
<path d="M0 7.38477H7.23529L41 41.1495H33.4632L0 7.38477Z" fill="#092D55"/>
<path d="M27.9798 34.4421C31.5286 34.0744 34.797 32.3827 37.1052 29.7188C39.4134 27.0549 40.5837 23.6239 40.3729 20.1393C40.162 16.6547 38.5861 13.3848 35.973 11.0095C33.3598 8.63432 29.9105 7.33663 26.3425 7.38636L26.5296 12.5102C28.6704 12.4803 30.6277 13.5611 32.1956 14.9862C33.7635 16.4114 34.709 18.3733 34.8355 20.4641C34.9621 22.5548 34.2598 24.6134 32.8749 26.2118C31.49 27.8101 29.529 28.8251 27.3997 29.0457L27.9798 34.4421Z" fill="#092D55"/>
</svg>
