<svg width="18" height="11" viewBox="0 0 18 11" fill="none" xmlns="http://www.w3.org/2000/svg">
<path d="M17.2758 10.9991H15.3058C14.5605 10.9991 14.3359 10.3781 12.9998 9.0028C11.8322 7.84518 11.339 7.70125 11.0437 7.70125C10.6351 7.70125 10.5237 7.81675 10.5237 8.39512V10.2182C10.5237 10.7113 10.3683 11 9.11596 11C7.90104 10.916 6.72289 10.5364 5.67855 9.89226C4.63422 9.24815 3.75358 8.35804 3.10918 7.29524C1.57911 5.33626 0.51449 3.03705 0 0.580463C0 0.276619 0.112276 0.00120543 0.675384 0.00120543H2.64453C3.15064 0.00120543 3.33287 0.233087 3.53152 0.768811C4.48759 3.66332 6.11905 6.18114 6.78148 6.18114C7.03539 6.18114 7.14594 6.06565 7.14594 5.41442V2.43285C7.06217 1.07266 6.36001 0.958047 6.36001 0.465856C6.36889 0.336003 6.42664 0.214828 6.52097 0.128068C6.61531 0.0413073 6.73882 -0.00420229 6.86525 0.00120543H9.96062C10.3838 0.00120543 10.5237 0.217983 10.5237 0.738604V4.7632C10.5237 5.19765 10.7051 5.34157 10.8329 5.34157C11.0868 5.34157 11.282 5.19765 11.7475 4.71967C12.7454 3.46786 13.5606 2.07318 14.1675 0.579575C14.2296 0.400248 14.3471 0.246745 14.5019 0.142481C14.6568 0.0382173 14.8405 -0.0110854 15.0251 0.0020938H16.9951C17.5859 0.0020938 17.7111 0.305938 17.5859 0.739493C16.8694 2.39057 15.9828 3.95784 14.9414 5.41442C14.7289 5.74759 14.6443 5.92083 14.9414 6.31174C15.1365 6.61558 15.8275 7.20906 16.2913 7.77321C16.9667 8.46619 17.5272 9.26756 17.9512 10.1453C18.1205 10.7104 17.8381 10.9991 17.2758 10.9991Z" fill="white"/>
</svg>
