<svg width="34" height="36" viewBox="0 0 34 36" fill="none" xmlns="http://www.w3.org/2000/svg">
<path d="M17.9835 7.99535H16.0226C15.8432 7.99535 15.6965 8.14605 15.6965 8.33024V19.8544C15.6965 19.9633 15.7454 20.0637 15.831 20.1265L22.5699 25.1791C22.7167 25.2879 22.9205 25.2586 23.0265 25.1079L24.1925 23.4753C24.3025 23.3205 24.2699 23.1112 24.1232 23.0065L18.3097 18.6907V8.33024C18.3097 8.14605 18.1629 7.99535 17.9835 7.99535ZM26.9443 11.1433L33.3367 12.7465C33.5405 12.7967 33.7403 12.6377 33.7403 12.4242L33.7729 5.66373C33.7729 5.38326 33.459 5.22419 33.247 5.4L26.822 10.553C26.7734 10.5916 26.7365 10.6435 26.7153 10.7026C26.6942 10.7618 26.6898 10.8259 26.7025 10.8876C26.7153 10.9493 26.7448 11.006 26.7875 11.0512C26.8303 11.0964 26.8846 11.1283 26.9443 11.1433ZM33.781 23.7474L31.4695 22.9312C31.3889 22.9028 31.3007 22.9079 31.2238 22.9455C31.1468 22.983 31.0872 23.05 31.0577 23.1321C30.9803 23.3456 30.8987 23.5549 30.8131 23.7642C30.0875 25.5265 29.0479 27.113 27.7189 28.4735C26.4046 29.8272 24.847 30.9062 23.1325 31.6507C21.3564 32.4218 19.4471 32.8175 17.5188 32.8144C15.5701 32.8144 13.6825 32.4251 11.9051 31.6507C10.1905 30.9062 8.63298 29.8272 7.31871 28.4735C5.99376 27.113 4.95418 25.5265 4.22444 23.7642C3.47764 21.9394 3.09503 19.9793 3.09925 18C3.09925 15.9991 3.47839 14.0567 4.23259 12.2316C4.95826 10.4693 5.99784 8.88279 7.32686 7.52233C8.64113 6.16864 10.1987 5.08964 11.9132 4.34512C13.6825 3.5707 15.5742 3.1814 17.5229 3.1814C19.4716 3.1814 21.3591 3.5707 23.1366 4.34512C24.8511 5.08964 26.4087 6.16864 27.7229 7.52233C28.1388 7.95349 28.5301 8.4014 28.8889 8.87442L31.3268 6.91535C28.1184 2.70419 23.1243 -0.0041812 17.5147 4.84552e-06C7.74677 0.00419089 -0.096937 8.15024 0.0009055 18.1842C0.098748 28.0423 7.90576 36 17.5229 36C25.0853 36 31.5266 31.0772 33.9808 24.1828C34.0419 24.007 33.9522 23.8102 33.781 23.7474Z" fill="white"/>
</svg>
