<svg width="32" height="26" viewBox="0 0 32 26" fill="none" xmlns="http://www.w3.org/2000/svg">
<path d="M13.5189 18.6875C14.1588 19.3375 14.9854 19.656 15.9987 19.643C17.0119 19.63 17.7585 19.2573 18.2385 18.525L27.1977 4.875L13.7589 13.975C13.0389 14.4625 12.6592 15.2073 12.6197 16.2094C12.5803 17.2115 12.88 18.0375 13.5189 18.6875ZM15.9987 2.05957e-06C17.5719 2.05957e-06 19.0853 0.223711 20.5391 0.671127C21.9928 1.11854 23.3591 1.78859 24.6379 2.68125L21.5982 4.63125C20.7183 4.17083 19.8053 3.82579 18.8592 3.59613C17.9132 3.36646 16.9597 3.25108 15.9987 3.25C12.4523 3.25 9.43228 4.51588 6.93862 7.04763C4.44496 9.57938 3.19867 12.6468 3.19973 16.25C3.19973 17.3875 3.35332 18.5115 3.6605 19.6219C3.96767 20.7323 4.4007 21.775 4.95959 22.75H27.0377C27.651 21.7208 28.0979 20.651 28.3784 19.5406C28.6589 18.4302 28.7987 17.2792 28.7976 16.0875C28.7976 15.1125 28.684 14.1646 28.4568 13.2437C28.2296 12.3229 27.8899 11.4292 27.4377 10.5625L29.3576 7.475C30.1575 8.74792 30.791 10.1021 31.2582 11.5375C31.7254 12.9729 31.9717 14.4625 31.9973 16.0063C32.024 17.55 31.8507 19.026 31.4774 20.4344C31.1041 21.8427 30.5575 23.1833 29.8375 24.4562C29.5442 24.9437 29.1442 25.3229 28.6376 25.5937C28.131 25.8646 27.5977 26 27.0377 26H4.95959C4.39963 26 3.86634 25.8646 3.35972 25.5937C2.8531 25.3229 2.45313 24.9437 2.15982 24.4562C1.46654 23.2375 0.933255 21.944 0.559953 20.5758C0.186651 19.2075 0 17.7656 0 16.25C0 14.0021 0.420232 11.8961 1.2607 9.932C2.10116 7.96792 3.24773 6.24867 4.70041 4.77425C6.15309 3.29767 7.85214 2.13254 9.79758 1.27888C11.743 0.425211 13.81 -0.00108127 15.9987 2.05957e-06Z" fill="white"/>
</svg>
