<svg width="39" height="35" viewBox="0 0 39 35" fill="none" xmlns="http://www.w3.org/2000/svg">
<path d="M0 34.6169V30.7835C0 30.7835 9.58333 26.9502 19.1667 26.9502C28.75 26.9502 38.3333 30.7835 38.3333 30.7835V34.6169H0ZM17.825 9.89185C15.525 2.41685 3.83333 4.14185 3.83333 4.14185C3.83333 4.14185 4.21667 19.0919 15.1417 16.7919C14.375 11.2335 11.5 9.70018 11.5 9.70018C16.8667 9.70018 17.25 16.2169 17.25 16.2169V25.0335H21.0833V16.9835C21.0833 16.9835 21.0833 9.50852 26.8333 7.59185C26.8333 7.59185 23 13.3419 23 17.1752C36.4167 18.5169 36.4167 0.116852 36.4167 0.116852C36.4167 0.116852 19.3583 -1.79981 17.825 9.89185Z" fill="white"/>
</svg>
