<svg width="183" height="53" viewBox="0 0 183 53" fill="none" xmlns="http://www.w3.org/2000/svg">
<path d="M54.8809 40.0977C54.513 40.0977 54.1794 40.0358 53.8799 39.9121C53.5837 39.7852 53.3281 39.6077 53.1133 39.3799C52.9017 39.152 52.7389 38.8818 52.625 38.5693C52.5111 38.2568 52.4541 37.915 52.4541 37.5439V37.3389C52.4541 36.9092 52.5176 36.5267 52.6445 36.1914C52.7715 35.8529 52.944 35.5664 53.1621 35.332C53.3802 35.0977 53.6276 34.9202 53.9043 34.7998C54.181 34.6794 54.4674 34.6191 54.7637 34.6191C55.1413 34.6191 55.4668 34.6842 55.7402 34.8145C56.0169 34.9447 56.2432 35.127 56.4189 35.3613C56.5947 35.5924 56.7249 35.8659 56.8096 36.1816C56.8942 36.4941 56.9365 36.8359 56.9365 37.207V37.6123H52.9912V36.875H56.0332V36.8066C56.0202 36.5723 55.9714 36.3444 55.8867 36.123C55.8053 35.9017 55.6751 35.7194 55.4961 35.5762C55.3171 35.4329 55.0729 35.3613 54.7637 35.3613C54.5586 35.3613 54.3698 35.4053 54.1973 35.4932C54.0247 35.5778 53.8766 35.7048 53.7529 35.874C53.6292 36.0433 53.5332 36.25 53.4648 36.4941C53.3965 36.7383 53.3623 37.0199 53.3623 37.3389V37.5439C53.3623 37.7946 53.3965 38.0306 53.4648 38.252C53.5365 38.4701 53.639 38.6621 53.7725 38.8281C53.9092 38.9941 54.0736 39.1243 54.2656 39.2188C54.4609 39.3132 54.6823 39.3604 54.9297 39.3604C55.2487 39.3604 55.5189 39.2952 55.7402 39.165C55.9616 39.0348 56.1553 38.8607 56.3213 38.6426L56.8682 39.0771C56.7542 39.2497 56.6094 39.4141 56.4336 39.5703C56.2578 39.7266 56.0413 39.8535 55.7842 39.9512C55.5303 40.0488 55.2292 40.0977 54.8809 40.0977ZM58.8945 35.8447V40H57.9912V34.7168H58.8457L58.8945 35.8447ZM58.6797 37.1582L58.3037 37.1436C58.307 36.7822 58.3607 36.4486 58.4648 36.1426C58.569 35.8333 58.7155 35.5648 58.9043 35.3369C59.0931 35.109 59.3177 34.9333 59.5781 34.8096C59.8418 34.6826 60.1331 34.6191 60.4521 34.6191C60.7126 34.6191 60.9469 34.6549 61.1553 34.7266C61.3636 34.7949 61.541 34.9056 61.6875 35.0586C61.8372 35.2116 61.9512 35.4102 62.0293 35.6543C62.1074 35.8952 62.1465 36.1898 62.1465 36.5381V40H61.2383V36.5283C61.2383 36.2516 61.1976 36.0303 61.1162 35.8643C61.0348 35.695 60.916 35.5729 60.7598 35.498C60.6035 35.4199 60.4115 35.3809 60.1836 35.3809C59.959 35.3809 59.7539 35.4281 59.5684 35.5225C59.3861 35.6169 59.2282 35.7471 59.0947 35.9131C58.9645 36.0791 58.862 36.2695 58.7871 36.4844C58.7155 36.696 58.6797 36.9206 58.6797 37.1582ZM66.9414 34.7168H67.7617V39.8877C67.7617 40.3532 67.6673 40.7503 67.4785 41.0791C67.2897 41.4079 67.026 41.6569 66.6875 41.8262C66.3522 41.9987 65.9648 42.085 65.5254 42.085C65.3431 42.085 65.1283 42.0557 64.8809 41.9971C64.6367 41.9417 64.3958 41.8457 64.1582 41.709C63.9238 41.5755 63.7269 41.3949 63.5674 41.167L64.041 40.6299C64.2624 40.8968 64.4935 41.0824 64.7344 41.1865C64.9785 41.2907 65.2194 41.3428 65.457 41.3428C65.7435 41.3428 65.9909 41.2891 66.1992 41.1816C66.4076 41.0742 66.5687 40.9147 66.6826 40.7031C66.7998 40.4948 66.8584 40.2376 66.8584 39.9316V35.8789L66.9414 34.7168ZM63.3037 37.417V37.3145C63.3037 36.9108 63.3509 36.5446 63.4453 36.2158C63.543 35.8838 63.6813 35.599 63.8604 35.3613C64.0426 35.1237 64.2624 34.9414 64.5195 34.8145C64.7767 34.6842 65.0664 34.6191 65.3887 34.6191C65.7207 34.6191 66.0104 34.6777 66.2578 34.7949C66.5085 34.9089 66.7201 35.0765 66.8926 35.2979C67.0684 35.516 67.2067 35.7796 67.3076 36.0889C67.4085 36.3981 67.4785 36.748 67.5176 37.1387V37.5879C67.4818 37.9753 67.4118 38.3236 67.3076 38.6328C67.2067 38.9421 67.0684 39.2057 66.8926 39.4238C66.7201 39.6419 66.5085 39.8096 66.2578 39.9268C66.0072 40.0407 65.7142 40.0977 65.3789 40.0977C65.0632 40.0977 64.7767 40.0309 64.5195 39.8975C64.2656 39.764 64.0475 39.5768 63.8652 39.3359C63.6829 39.0951 63.543 38.8118 63.4453 38.4863C63.3509 38.1576 63.3037 37.8011 63.3037 37.417ZM64.207 37.3145V37.417C64.207 37.6807 64.2331 37.9281 64.2852 38.1592C64.3405 38.3903 64.4235 38.5938 64.5342 38.7695C64.6481 38.9453 64.793 39.0837 64.9688 39.1846C65.1445 39.2822 65.3545 39.3311 65.5986 39.3311C65.8981 39.3311 66.1455 39.2676 66.3408 39.1406C66.5361 39.0137 66.6908 38.846 66.8047 38.6377C66.9219 38.4294 67.013 38.2031 67.0781 37.959V36.7822C67.0423 36.6032 66.987 36.4307 66.9121 36.2646C66.8405 36.0954 66.7461 35.9456 66.6289 35.8154C66.515 35.682 66.3734 35.5762 66.2041 35.498C66.0348 35.4199 65.8363 35.3809 65.6084 35.3809C65.361 35.3809 65.1478 35.4329 64.9688 35.5371C64.793 35.638 64.6481 35.778 64.5342 35.957C64.4235 36.1328 64.3405 36.3379 64.2852 36.5723C64.2331 36.8034 64.207 37.0508 64.207 37.3145ZM70.1152 34.7168V40H69.207V34.7168H70.1152ZM69.1387 33.3154C69.1387 33.1689 69.1826 33.0452 69.2705 32.9443C69.3617 32.8434 69.4951 32.793 69.6709 32.793C69.8434 32.793 69.9753 32.8434 70.0664 32.9443C70.1608 33.0452 70.208 33.1689 70.208 33.3154C70.208 33.4554 70.1608 33.5758 70.0664 33.6768C69.9753 33.7744 69.8434 33.8232 69.6709 33.8232C69.4951 33.8232 69.3617 33.7744 69.2705 33.6768C69.1826 33.5758 69.1387 33.4554 69.1387 33.3154ZM72.4688 35.8447V40H71.5654V34.7168H72.4199L72.4688 35.8447ZM72.2539 37.1582L71.8779 37.1436C71.8812 36.7822 71.9349 36.4486 72.0391 36.1426C72.1432 35.8333 72.2897 35.5648 72.4785 35.3369C72.6673 35.109 72.8919 34.9333 73.1523 34.8096C73.416 34.6826 73.7074 34.6191 74.0264 34.6191C74.2868 34.6191 74.5212 34.6549 74.7295 34.7266C74.9378 34.7949 75.1152 34.9056 75.2617 35.0586C75.4115 35.2116 75.5254 35.4102 75.6035 35.6543C75.6816 35.8952 75.7207 36.1898 75.7207 36.5381V40H74.8125V36.5283C74.8125 36.2516 74.7718 36.0303 74.6904 35.8643C74.609 35.695 74.4902 35.5729 74.334 35.498C74.1777 35.4199 73.9857 35.3809 73.7578 35.3809C73.5332 35.3809 73.3281 35.4281 73.1426 35.5225C72.9603 35.6169 72.8024 35.7471 72.6689 35.9131C72.5387 36.0791 72.4362 36.2695 72.3613 36.4844C72.2897 36.696 72.2539 36.9206 72.2539 37.1582ZM79.2852 40.0977C78.9173 40.0977 78.5837 40.0358 78.2842 39.9121C77.988 39.7852 77.7324 39.6077 77.5176 39.3799C77.306 39.152 77.1432 38.8818 77.0293 38.5693C76.9154 38.2568 76.8584 37.915 76.8584 37.5439V37.3389C76.8584 36.9092 76.9219 36.5267 77.0488 36.1914C77.1758 35.8529 77.3483 35.5664 77.5664 35.332C77.7845 35.0977 78.0319 34.9202 78.3086 34.7998C78.5853 34.6794 78.8717 34.6191 79.168 34.6191C79.5456 34.6191 79.8711 34.6842 80.1445 34.8145C80.4212 34.9447 80.6475 35.127 80.8232 35.3613C80.999 35.5924 81.1292 35.8659 81.2139 36.1816C81.2985 36.4941 81.3408 36.8359 81.3408 37.207V37.6123H77.3955V36.875H80.4375V36.8066C80.4245 36.5723 80.3757 36.3444 80.291 36.123C80.2096 35.9017 80.0794 35.7194 79.9004 35.5762C79.7214 35.4329 79.4772 35.3613 79.168 35.3613C78.9629 35.3613 78.7741 35.4053 78.6016 35.4932C78.429 35.5778 78.2809 35.7048 78.1572 35.874C78.0335 36.0433 77.9375 36.25 77.8691 36.4941C77.8008 36.7383 77.7666 37.0199 77.7666 37.3389V37.5439C77.7666 37.7946 77.8008 38.0306 77.8691 38.252C77.9408 38.4701 78.0433 38.6621 78.1768 38.8281C78.3135 38.9941 78.4779 39.1243 78.6699 39.2188C78.8652 39.3132 79.0866 39.3604 79.334 39.3604C79.653 39.3604 79.9232 39.2952 80.1445 39.165C80.3659 39.0348 80.5596 38.8607 80.7256 38.6426L81.2725 39.0771C81.1585 39.2497 81.0137 39.4141 80.8379 39.5703C80.6621 39.7266 80.4456 39.8535 80.1885 39.9512C79.9346 40.0488 79.6335 40.0977 79.2852 40.0977ZM84.5879 40.0977C84.2201 40.0977 83.8864 40.0358 83.5869 39.9121C83.2907 39.7852 83.0352 39.6077 82.8203 39.3799C82.6087 39.152 82.446 38.8818 82.332 38.5693C82.2181 38.2568 82.1611 37.915 82.1611 37.5439V37.3389C82.1611 36.9092 82.2246 36.5267 82.3516 36.1914C82.4785 35.8529 82.651 35.5664 82.8691 35.332C83.0872 35.0977 83.3346 34.9202 83.6113 34.7998C83.888 34.6794 84.1745 34.6191 84.4707 34.6191C84.8483 34.6191 85.1738 34.6842 85.4473 34.8145C85.724 34.9447 85.9502 35.127 86.126 35.3613C86.3018 35.5924 86.432 35.8659 86.5166 36.1816C86.6012 36.4941 86.6436 36.8359 86.6436 37.207V37.6123H82.6982V36.875H85.7402V36.8066C85.7272 36.5723 85.6784 36.3444 85.5938 36.123C85.5124 35.9017 85.3822 35.7194 85.2031 35.5762C85.0241 35.4329 84.7799 35.3613 84.4707 35.3613C84.2656 35.3613 84.0768 35.4053 83.9043 35.4932C83.7318 35.5778 83.5837 35.7048 83.46 35.874C83.3363 36.0433 83.2402 36.25 83.1719 36.4941C83.1035 36.7383 83.0693 37.0199 83.0693 37.3389V37.5439C83.0693 37.7946 83.1035 38.0306 83.1719 38.252C83.2435 38.4701 83.346 38.6621 83.4795 38.8281C83.6162 38.9941 83.7806 39.1243 83.9727 39.2188C84.168 39.3132 84.3893 39.3604 84.6367 39.3604C84.9557 39.3604 85.2259 39.2952 85.4473 39.165C85.6686 39.0348 85.8623 38.8607 86.0283 38.6426L86.5752 39.0771C86.4613 39.2497 86.3164 39.4141 86.1406 39.5703C85.9648 39.7266 85.7484 39.8535 85.4912 39.9512C85.2373 40.0488 84.9362 40.0977 84.5879 40.0977ZM88.6016 35.5469V40H87.6982V34.7168H88.5771L88.6016 35.5469ZM90.252 34.6875L90.2471 35.5273C90.1722 35.5111 90.1006 35.5013 90.0322 35.498C89.9671 35.4915 89.8923 35.4883 89.8076 35.4883C89.5993 35.4883 89.4154 35.5208 89.2559 35.5859C89.0964 35.651 88.9613 35.7422 88.8506 35.8594C88.7399 35.9766 88.652 36.1165 88.5869 36.2793C88.5251 36.4388 88.4844 36.6146 88.4648 36.8066L88.2109 36.9531C88.2109 36.6341 88.2419 36.3346 88.3037 36.0547C88.3688 35.7747 88.4681 35.5273 88.6016 35.3125C88.735 35.0944 88.9043 34.9251 89.1094 34.8047C89.3177 34.681 89.5651 34.6191 89.8516 34.6191C89.9167 34.6191 89.9915 34.6273 90.0762 34.6436C90.1608 34.6566 90.2194 34.6712 90.252 34.6875ZM92.0684 34.7168V40H91.1602V34.7168H92.0684ZM91.0918 33.3154C91.0918 33.1689 91.1357 33.0452 91.2236 32.9443C91.3148 32.8434 91.4482 32.793 91.624 32.793C91.7965 32.793 91.9284 32.8434 92.0195 32.9443C92.1139 33.0452 92.1611 33.1689 92.1611 33.3154C92.1611 33.4554 92.1139 33.5758 92.0195 33.6768C91.9284 33.7744 91.7965 33.8232 91.624 33.8232C91.4482 33.8232 91.3148 33.7744 91.2236 33.6768C91.1357 33.5758 91.0918 33.4554 91.0918 33.3154ZM94.4219 35.8447V40H93.5186V34.7168H94.373L94.4219 35.8447ZM94.207 37.1582L93.8311 37.1436C93.8343 36.7822 93.888 36.4486 93.9922 36.1426C94.0964 35.8333 94.2428 35.5648 94.4316 35.3369C94.6204 35.109 94.8451 34.9333 95.1055 34.8096C95.3691 34.6826 95.6605 34.6191 95.9795 34.6191C96.2399 34.6191 96.4743 34.6549 96.6826 34.7266C96.891 34.7949 97.0684 34.9056 97.2148 35.0586C97.3646 35.2116 97.4785 35.4102 97.5566 35.6543C97.6348 35.8952 97.6738 36.1898 97.6738 36.5381V40H96.7656V36.5283C96.7656 36.2516 96.7249 36.0303 96.6436 35.8643C96.5622 35.695 96.4434 35.5729 96.2871 35.498C96.1309 35.4199 95.9388 35.3809 95.7109 35.3809C95.4863 35.3809 95.2812 35.4281 95.0957 35.5225C94.9134 35.6169 94.7555 35.7471 94.6221 35.9131C94.4919 36.0791 94.3893 36.2695 94.3145 36.4844C94.2428 36.696 94.207 36.9206 94.207 37.1582ZM102.469 34.7168H103.289V39.8877C103.289 40.3532 103.195 40.7503 103.006 41.0791C102.817 41.4079 102.553 41.6569 102.215 41.8262C101.88 41.9987 101.492 42.085 101.053 42.085C100.87 42.085 100.656 42.0557 100.408 41.9971C100.164 41.9417 99.9232 41.8457 99.6855 41.709C99.4512 41.5755 99.2542 41.3949 99.0947 41.167L99.5684 40.6299C99.7897 40.8968 100.021 41.0824 100.262 41.1865C100.506 41.2907 100.747 41.3428 100.984 41.3428C101.271 41.3428 101.518 41.2891 101.727 41.1816C101.935 41.0742 102.096 40.9147 102.21 40.7031C102.327 40.4948 102.386 40.2376 102.386 39.9316V35.8789L102.469 34.7168ZM98.8311 37.417V37.3145C98.8311 36.9108 98.8783 36.5446 98.9727 36.2158C99.0703 35.8838 99.2087 35.599 99.3877 35.3613C99.57 35.1237 99.7897 34.9414 100.047 34.8145C100.304 34.6842 100.594 34.6191 100.916 34.6191C101.248 34.6191 101.538 34.6777 101.785 34.7949C102.036 34.9089 102.247 35.0765 102.42 35.2979C102.596 35.516 102.734 35.7796 102.835 36.0889C102.936 36.3981 103.006 36.748 103.045 37.1387V37.5879C103.009 37.9753 102.939 38.3236 102.835 38.6328C102.734 38.9421 102.596 39.2057 102.42 39.4238C102.247 39.6419 102.036 39.8096 101.785 39.9268C101.535 40.0407 101.242 40.0977 100.906 40.0977C100.59 40.0977 100.304 40.0309 100.047 39.8975C99.793 39.764 99.5749 39.5768 99.3926 39.3359C99.2103 39.0951 99.0703 38.8118 98.9727 38.4863C98.8783 38.1576 98.8311 37.8011 98.8311 37.417ZM99.7344 37.3145V37.417C99.7344 37.6807 99.7604 37.9281 99.8125 38.1592C99.8678 38.3903 99.9508 38.5938 100.062 38.7695C100.175 38.9453 100.32 39.0837 100.496 39.1846C100.672 39.2822 100.882 39.3311 101.126 39.3311C101.425 39.3311 101.673 39.2676 101.868 39.1406C102.063 39.0137 102.218 38.846 102.332 38.6377C102.449 38.4294 102.54 38.2031 102.605 37.959V36.7822C102.57 36.6032 102.514 36.4307 102.439 36.2646C102.368 36.0954 102.273 35.9456 102.156 35.8154C102.042 35.682 101.901 35.5762 101.731 35.498C101.562 35.4199 101.364 35.3809 101.136 35.3809C100.888 35.3809 100.675 35.4329 100.496 35.5371C100.32 35.638 100.175 35.778 100.062 35.957C99.9508 36.1328 99.8678 36.3379 99.8125 36.5723C99.7604 36.8034 99.7344 37.0508 99.7344 37.3145ZM108.455 36.0547L109.52 35.2979C109.725 35.1579 109.882 35.0179 109.993 34.8779C110.107 34.7347 110.164 34.5394 110.164 34.292C110.164 34.0999 110.089 33.9258 109.939 33.7695C109.79 33.61 109.578 33.5303 109.305 33.5303C109.116 33.5303 108.956 33.5742 108.826 33.6621C108.696 33.75 108.598 33.8672 108.533 34.0137C108.468 34.1569 108.436 34.3148 108.436 34.4873C108.436 34.6338 108.471 34.7852 108.543 34.9414C108.615 35.0977 108.714 35.2604 108.841 35.4297C108.968 35.599 109.113 35.778 109.275 35.9668L112.64 40H111.556L108.797 36.6992C108.553 36.4128 108.335 36.1507 108.143 35.9131C107.951 35.6722 107.799 35.4395 107.688 35.2148C107.581 34.9902 107.527 34.7575 107.527 34.5166C107.527 34.1455 107.601 33.833 107.747 33.5791C107.897 33.3219 108.105 33.1266 108.372 32.9932C108.639 32.8597 108.951 32.793 109.31 32.793C109.658 32.793 109.957 32.863 110.208 33.0029C110.462 33.1396 110.657 33.3219 110.794 33.5498C110.931 33.7744 110.999 34.0218 110.999 34.292C110.999 34.5199 110.958 34.7249 110.877 34.9072C110.796 35.0863 110.682 35.2507 110.535 35.4004C110.392 35.5501 110.224 35.6966 110.032 35.8398L108.621 36.8896C108.387 37.0622 108.216 37.2266 108.108 37.3828C108.001 37.5391 107.931 37.6774 107.898 37.7979C107.869 37.9183 107.854 38.0143 107.854 38.0859C107.854 38.3171 107.905 38.5286 108.006 38.7207C108.107 38.9128 108.26 39.0674 108.465 39.1846C108.673 39.2985 108.934 39.3555 109.246 39.3555C109.52 39.3555 109.785 39.2936 110.042 39.1699C110.302 39.043 110.535 38.8639 110.74 38.6328C110.945 38.3984 111.108 38.1201 111.229 37.7979C111.352 37.4723 111.414 37.1126 111.414 36.7188H112.225C112.225 37.041 112.194 37.3454 112.132 37.6318C112.07 37.9183 111.974 38.1852 111.844 38.4326C111.717 38.6768 111.554 38.8997 111.355 39.1016C111.326 39.1309 111.303 39.165 111.287 39.2041C111.271 39.2432 111.248 39.2773 111.219 39.3066C110.975 39.5703 110.674 39.7689 110.315 39.9023C109.961 40.0326 109.604 40.0977 109.246 40.0977C108.774 40.0977 108.366 40.0114 108.021 39.8389C107.679 39.6663 107.415 39.4287 107.229 39.126C107.044 38.8232 106.951 38.4766 106.951 38.0859C106.951 37.7865 107.015 37.5228 107.142 37.2949C107.272 37.0671 107.449 36.8538 107.674 36.6553C107.902 36.4567 108.162 36.2565 108.455 36.0547ZM117.957 39.3555C118.172 39.3555 118.37 39.3115 118.553 39.2236C118.735 39.1357 118.885 39.0153 119.002 38.8623C119.119 38.7061 119.186 38.5286 119.202 38.3301H120.062C120.045 38.6426 119.939 38.9339 119.744 39.2041C119.552 39.471 119.3 39.6875 118.987 39.8535C118.675 40.0163 118.331 40.0977 117.957 40.0977C117.56 40.0977 117.213 40.0277 116.917 39.8877C116.624 39.7477 116.38 39.5557 116.185 39.3115C115.993 39.0674 115.848 38.7874 115.75 38.4717C115.656 38.1527 115.608 37.8158 115.608 37.4609V37.2559C115.608 36.901 115.656 36.5658 115.75 36.25C115.848 35.931 115.993 35.6494 116.185 35.4053C116.38 35.1611 116.624 34.9691 116.917 34.8291C117.213 34.6891 117.56 34.6191 117.957 34.6191C118.37 34.6191 118.732 34.7038 119.041 34.873C119.35 35.0391 119.593 35.2669 119.769 35.5566C119.948 35.8431 120.045 36.1686 120.062 36.5332H119.202C119.186 36.3151 119.124 36.1182 119.017 35.9424C118.912 35.7666 118.769 35.6266 118.587 35.5225C118.408 35.415 118.198 35.3613 117.957 35.3613C117.68 35.3613 117.448 35.4167 117.259 35.5273C117.073 35.6348 116.925 35.7812 116.814 35.9668C116.707 36.1491 116.629 36.3525 116.58 36.5771C116.535 36.7985 116.512 37.0247 116.512 37.2559V37.4609C116.512 37.6921 116.535 37.9199 116.58 38.1445C116.626 38.3691 116.702 38.5726 116.81 38.7549C116.92 38.9372 117.068 39.0837 117.254 39.1943C117.443 39.3018 117.677 39.3555 117.957 39.3555ZM120.838 37.417V37.3047C120.838 36.9238 120.893 36.5706 121.004 36.2451C121.115 35.9163 121.274 35.6315 121.482 35.3906C121.691 35.1465 121.943 34.9577 122.239 34.8242C122.535 34.6875 122.868 34.6191 123.235 34.6191C123.606 34.6191 123.94 34.6875 124.236 34.8242C124.536 34.9577 124.79 35.1465 124.998 35.3906C125.21 35.6315 125.371 35.9163 125.481 36.2451C125.592 36.5706 125.647 36.9238 125.647 37.3047V37.417C125.647 37.7979 125.592 38.151 125.481 38.4766C125.371 38.8021 125.21 39.0869 124.998 39.3311C124.79 39.5719 124.537 39.7607 124.241 39.8975C123.948 40.0309 123.616 40.0977 123.245 40.0977C122.874 40.0977 122.54 40.0309 122.244 39.8975C121.948 39.7607 121.694 39.5719 121.482 39.3311C121.274 39.0869 121.115 38.8021 121.004 38.4766C120.893 38.151 120.838 37.7979 120.838 37.417ZM121.741 37.3047V37.417C121.741 37.6807 121.772 37.9297 121.834 38.1641C121.896 38.3952 121.989 38.6003 122.112 38.7793C122.239 38.9583 122.397 39.0999 122.586 39.2041C122.775 39.305 122.994 39.3555 123.245 39.3555C123.493 39.3555 123.709 39.305 123.895 39.2041C124.083 39.0999 124.24 38.9583 124.363 38.7793C124.487 38.6003 124.58 38.3952 124.642 38.1641C124.707 37.9297 124.739 37.6807 124.739 37.417V37.3047C124.739 37.0443 124.707 36.7985 124.642 36.5674C124.58 36.333 124.485 36.1263 124.358 35.9473C124.235 35.765 124.078 35.6217 123.89 35.5176C123.704 35.4134 123.486 35.3613 123.235 35.3613C122.988 35.3613 122.77 35.4134 122.581 35.5176C122.396 35.6217 122.239 35.765 122.112 35.9473C121.989 36.1263 121.896 36.333 121.834 36.5674C121.772 36.7985 121.741 37.0443 121.741 37.3047ZM127.684 35.8447V40H126.78V34.7168H127.635L127.684 35.8447ZM127.469 37.1582L127.093 37.1436C127.096 36.7822 127.15 36.4486 127.254 36.1426C127.358 35.8333 127.505 35.5648 127.693 35.3369C127.882 35.109 128.107 34.9333 128.367 34.8096C128.631 34.6826 128.922 34.6191 129.241 34.6191C129.502 34.6191 129.736 34.6549 129.944 34.7266C130.153 34.7949 130.33 34.9056 130.477 35.0586C130.626 35.2116 130.74 35.4102 130.818 35.6543C130.896 35.8952 130.936 36.1898 130.936 36.5381V40H130.027V36.5283C130.027 36.2516 129.987 36.0303 129.905 35.8643C129.824 35.695 129.705 35.5729 129.549 35.498C129.393 35.4199 129.201 35.3809 128.973 35.3809C128.748 35.3809 128.543 35.4281 128.357 35.5225C128.175 35.6169 128.017 35.7471 127.884 35.9131C127.754 36.0791 127.651 36.2695 127.576 36.4844C127.505 36.696 127.469 36.9206 127.469 37.1582ZM135.384 38.5986C135.384 38.4684 135.354 38.348 135.296 38.2373C135.241 38.1234 135.125 38.0208 134.949 37.9297C134.777 37.8353 134.516 37.7539 134.168 37.6855C133.875 37.6237 133.61 37.5505 133.372 37.4658C133.138 37.3812 132.938 37.2786 132.771 37.1582C132.609 37.0378 132.483 36.8962 132.396 36.7334C132.308 36.5706 132.264 36.3802 132.264 36.1621C132.264 35.9538 132.309 35.7568 132.4 35.5713C132.495 35.3857 132.627 35.2214 132.796 35.0781C132.968 34.9349 133.175 34.8226 133.416 34.7412C133.657 34.6598 133.925 34.6191 134.222 34.6191C134.645 34.6191 135.006 34.694 135.306 34.8438C135.605 34.9935 135.835 35.1937 135.994 35.4443C136.154 35.6917 136.233 35.9668 136.233 36.2695H135.33C135.33 36.123 135.286 35.9814 135.198 35.8447C135.114 35.7048 134.988 35.5892 134.822 35.498C134.66 35.4069 134.459 35.3613 134.222 35.3613C133.971 35.3613 133.768 35.4004 133.611 35.4785C133.458 35.5534 133.346 35.6494 133.274 35.7666C133.206 35.8838 133.172 36.0075 133.172 36.1377C133.172 36.2354 133.188 36.3232 133.221 36.4014C133.257 36.4762 133.318 36.5462 133.406 36.6113C133.494 36.6732 133.618 36.7318 133.777 36.7871C133.937 36.8424 134.14 36.8978 134.388 36.9531C134.821 37.0508 135.177 37.168 135.457 37.3047C135.737 37.4414 135.945 37.609 136.082 37.8076C136.219 38.0062 136.287 38.2471 136.287 38.5303C136.287 38.7614 136.238 38.973 136.141 39.165C136.046 39.3571 135.908 39.5231 135.726 39.6631C135.547 39.7998 135.332 39.9072 135.081 39.9854C134.834 40.0602 134.555 40.0977 134.246 40.0977C133.781 40.0977 133.387 40.0146 133.064 39.8486C132.742 39.6826 132.498 39.4678 132.332 39.2041C132.166 38.9404 132.083 38.6621 132.083 38.3691H132.991C133.004 38.6165 133.076 38.8135 133.206 38.96C133.336 39.1032 133.496 39.2057 133.685 39.2676C133.873 39.3262 134.061 39.3555 134.246 39.3555C134.493 39.3555 134.7 39.3229 134.866 39.2578C135.035 39.1927 135.164 39.1032 135.252 38.9893C135.34 38.8753 135.384 38.7451 135.384 38.5986ZM139.686 34.7168V35.4102H136.829V34.7168H139.686ZM137.796 33.4326H138.699V38.6914C138.699 38.8704 138.727 39.0055 138.782 39.0967C138.838 39.1878 138.909 39.248 138.997 39.2773C139.085 39.3066 139.179 39.3213 139.28 39.3213C139.355 39.3213 139.433 39.3148 139.515 39.3018C139.599 39.2855 139.663 39.2725 139.705 39.2627L139.71 40C139.638 40.0228 139.544 40.0439 139.427 40.0635C139.313 40.0863 139.174 40.0977 139.012 40.0977C138.79 40.0977 138.587 40.0537 138.401 39.9658C138.216 39.8779 138.068 39.7314 137.957 39.5264C137.85 39.318 137.796 39.0381 137.796 38.6865V33.4326ZM141.648 35.5469V40H140.745V34.7168H141.624L141.648 35.5469ZM143.299 34.6875L143.294 35.5273C143.219 35.5111 143.147 35.5013 143.079 35.498C143.014 35.4915 142.939 35.4883 142.854 35.4883C142.646 35.4883 142.462 35.5208 142.303 35.5859C142.143 35.651 142.008 35.7422 141.897 35.8594C141.787 35.9766 141.699 36.1165 141.634 36.2793C141.572 36.4388 141.531 36.6146 141.512 36.8066L141.258 36.9531C141.258 36.6341 141.289 36.3346 141.351 36.0547C141.416 35.7747 141.515 35.5273 141.648 35.3125C141.782 35.0944 141.951 34.9251 142.156 34.8047C142.365 34.681 142.612 34.6191 142.898 34.6191C142.964 34.6191 143.038 34.6273 143.123 34.6436C143.208 34.6566 143.266 34.6712 143.299 34.6875ZM147.366 38.7793V34.7168H148.274V40H147.41L147.366 38.7793ZM147.537 37.666L147.913 37.6562C147.913 38.0078 147.876 38.3333 147.801 38.6328C147.729 38.929 147.612 39.1862 147.449 39.4043C147.286 39.6224 147.073 39.7933 146.81 39.917C146.546 40.0374 146.225 40.0977 145.848 40.0977C145.59 40.0977 145.354 40.0602 145.14 39.9854C144.928 39.9105 144.746 39.7949 144.593 39.6387C144.44 39.4824 144.321 39.279 144.236 39.0283C144.155 38.7777 144.114 38.4766 144.114 38.125V34.7168H145.018V38.1348C145.018 38.3724 145.044 38.5693 145.096 38.7256C145.151 38.8786 145.224 39.0007 145.315 39.0918C145.41 39.1797 145.514 39.2415 145.628 39.2773C145.745 39.3132 145.866 39.3311 145.989 39.3311C146.373 39.3311 146.678 39.2578 146.902 39.1113C147.127 38.9616 147.288 38.7614 147.386 38.5107C147.487 38.2568 147.537 37.9753 147.537 37.666ZM151.766 39.3555C151.98 39.3555 152.179 39.3115 152.361 39.2236C152.544 39.1357 152.693 39.0153 152.811 38.8623C152.928 38.7061 152.994 38.5286 153.011 38.3301H153.87C153.854 38.6426 153.748 38.9339 153.553 39.2041C153.361 39.471 153.108 39.6875 152.796 39.8535C152.483 40.0163 152.14 40.0977 151.766 40.0977C151.368 40.0977 151.022 40.0277 150.726 39.8877C150.433 39.7477 150.188 39.5557 149.993 39.3115C149.801 39.0674 149.656 38.7874 149.559 38.4717C149.464 38.1527 149.417 37.8158 149.417 37.4609V37.2559C149.417 36.901 149.464 36.5658 149.559 36.25C149.656 35.931 149.801 35.6494 149.993 35.4053C150.188 35.1611 150.433 34.9691 150.726 34.8291C151.022 34.6891 151.368 34.6191 151.766 34.6191C152.179 34.6191 152.54 34.7038 152.85 34.873C153.159 35.0391 153.401 35.2669 153.577 35.5566C153.756 35.8431 153.854 36.1686 153.87 36.5332H153.011C152.994 36.3151 152.933 36.1182 152.825 35.9424C152.721 35.7666 152.578 35.6266 152.396 35.5225C152.216 35.415 152.007 35.3613 151.766 35.3613C151.489 35.3613 151.256 35.4167 151.067 35.5273C150.882 35.6348 150.734 35.7812 150.623 35.9668C150.516 36.1491 150.438 36.3525 150.389 36.5771C150.343 36.7985 150.32 37.0247 150.32 37.2559V37.4609C150.32 37.6921 150.343 37.9199 150.389 38.1445C150.434 38.3691 150.511 38.5726 150.618 38.7549C150.729 38.9372 150.877 39.0837 151.062 39.1943C151.251 39.3018 151.486 39.3555 151.766 39.3555ZM157.098 34.7168V35.4102H154.241V34.7168H157.098ZM155.208 33.4326H156.111V38.6914C156.111 38.8704 156.139 39.0055 156.194 39.0967C156.25 39.1878 156.321 39.248 156.409 39.2773C156.497 39.3066 156.591 39.3213 156.692 39.3213C156.767 39.3213 156.845 39.3148 156.927 39.3018C157.011 39.2855 157.075 39.2725 157.117 39.2627L157.122 40C157.05 40.0228 156.956 40.0439 156.839 40.0635C156.725 40.0863 156.587 40.0977 156.424 40.0977C156.202 40.0977 155.999 40.0537 155.813 39.9658C155.628 39.8779 155.48 39.7314 155.369 39.5264C155.262 39.318 155.208 39.0381 155.208 38.6865V33.4326ZM159.139 34.7168V40H158.23V34.7168H159.139ZM158.162 33.3154C158.162 33.1689 158.206 33.0452 158.294 32.9443C158.385 32.8434 158.519 32.793 158.694 32.793C158.867 32.793 158.999 32.8434 159.09 32.9443C159.184 33.0452 159.231 33.1689 159.231 33.3154C159.231 33.4554 159.184 33.5758 159.09 33.6768C158.999 33.7744 158.867 33.8232 158.694 33.8232C158.519 33.8232 158.385 33.7744 158.294 33.6768C158.206 33.5758 158.162 33.4554 158.162 33.3154ZM160.35 37.417V37.3047C160.35 36.9238 160.405 36.5706 160.516 36.2451C160.626 35.9163 160.786 35.6315 160.994 35.3906C161.202 35.1465 161.455 34.9577 161.751 34.8242C162.047 34.6875 162.379 34.6191 162.747 34.6191C163.118 34.6191 163.452 34.6875 163.748 34.8242C164.048 34.9577 164.301 35.1465 164.51 35.3906C164.721 35.6315 164.882 35.9163 164.993 36.2451C165.104 36.5706 165.159 36.9238 165.159 37.3047V37.417C165.159 37.7979 165.104 38.151 164.993 38.4766C164.882 38.8021 164.721 39.0869 164.51 39.3311C164.301 39.5719 164.049 39.7607 163.753 39.8975C163.46 40.0309 163.128 40.0977 162.757 40.0977C162.386 40.0977 162.052 40.0309 161.756 39.8975C161.46 39.7607 161.206 39.5719 160.994 39.3311C160.786 39.0869 160.626 38.8021 160.516 38.4766C160.405 38.151 160.35 37.7979 160.35 37.417ZM161.253 37.3047V37.417C161.253 37.6807 161.284 37.9297 161.346 38.1641C161.408 38.3952 161.5 38.6003 161.624 38.7793C161.751 38.9583 161.909 39.0999 162.098 39.2041C162.286 39.305 162.506 39.3555 162.757 39.3555C163.004 39.3555 163.221 39.305 163.406 39.2041C163.595 39.0999 163.751 38.9583 163.875 38.7793C163.999 38.6003 164.091 38.3952 164.153 38.1641C164.218 37.9297 164.251 37.6807 164.251 37.417V37.3047C164.251 37.0443 164.218 36.7985 164.153 36.5674C164.091 36.333 163.997 36.1263 163.87 35.9473C163.746 35.765 163.59 35.6217 163.401 35.5176C163.216 35.4134 162.998 35.3613 162.747 35.3613C162.5 35.3613 162.282 35.4134 162.093 35.5176C161.907 35.6217 161.751 35.765 161.624 35.9473C161.5 36.1263 161.408 36.333 161.346 36.5674C161.284 36.7985 161.253 37.0443 161.253 37.3047ZM167.195 35.8447V40H166.292V34.7168H167.146L167.195 35.8447ZM166.98 37.1582L166.604 37.1436C166.608 36.7822 166.661 36.4486 166.766 36.1426C166.87 35.8333 167.016 35.5648 167.205 35.3369C167.394 35.109 167.618 34.9333 167.879 34.8096C168.143 34.6826 168.434 34.6191 168.753 34.6191C169.013 34.6191 169.248 34.6549 169.456 34.7266C169.664 34.7949 169.842 34.9056 169.988 35.0586C170.138 35.2116 170.252 35.4102 170.33 35.6543C170.408 35.8952 170.447 36.1898 170.447 36.5381V40H169.539V36.5283C169.539 36.2516 169.498 36.0303 169.417 35.8643C169.336 35.695 169.217 35.5729 169.061 35.498C168.904 35.4199 168.712 35.3809 168.484 35.3809C168.26 35.3809 168.055 35.4281 167.869 35.5225C167.687 35.6169 167.529 35.7471 167.396 35.9131C167.265 36.0791 167.163 36.2695 167.088 36.4844C167.016 36.696 166.98 36.9206 166.98 37.1582Z" fill="#092D55"/>
<path d="M0.301758 31.3535H7.23558L17.1841 41.302H9.94882L0.301758 31.3535Z" fill="#F7912C"/>
<path d="M0 19.2939H7.53677L40.3971 52.4557H33.1618L0 19.2939Z" fill="#F7912C"/>
<path d="M26.8309 12.5099L26.8309 7.38489L12.0589 7.38481L17.1839 12.5098L26.8309 12.5099Z" fill="#092D55"/>
<path d="M0 7.38477H7.23529L41 41.1495H33.4632L0 7.38477Z" fill="#092D55"/>
<path d="M27.9798 34.4421C31.5286 34.0744 34.797 32.3827 37.1052 29.7188C39.4134 27.0549 40.5837 23.6239 40.3729 20.1393C40.162 16.6547 38.5861 13.3848 35.973 11.0095C33.3598 8.63432 29.9105 7.33663 26.3425 7.38636L26.5296 12.5102C28.6704 12.4803 30.6277 13.5611 32.1956 14.9862C33.7635 16.4114 34.709 18.3733 34.8355 20.4641C34.9621 22.5548 34.2598 24.6134 32.8749 26.2118C31.49 27.8101 29.529 28.8251 27.3997 29.0457L27.9798 34.4421Z" fill="#092D55"/>
<path d="M48.6504 13.7812H53.3574C54.4251 13.7812 55.3268 13.944 56.0625 14.2695C56.8047 14.5951 57.3678 15.0768 57.752 15.7148C58.1426 16.3464 58.3379 17.1243 58.3379 18.0488C58.3379 18.6999 58.2044 19.2956 57.9375 19.8359C57.6771 20.3698 57.2995 20.8255 56.8047 21.2031C56.3164 21.5742 55.7305 21.8509 55.0469 22.0332L54.5195 22.2383H50.0957L50.0762 20.7051H53.416C54.0931 20.7051 54.6562 20.5879 55.1055 20.3535C55.5547 20.1126 55.8932 19.7904 56.1211 19.3867C56.349 18.9831 56.4629 18.5371 56.4629 18.0488C56.4629 17.502 56.3555 17.0234 56.1406 16.6133C55.9258 16.2031 55.5872 15.8874 55.125 15.666C54.6693 15.4382 54.0801 15.3242 53.3574 15.3242H50.5352V28H48.6504V13.7812ZM56.9609 28L53.5039 21.5547L55.4668 21.5449L58.9727 27.8828V28H56.9609ZM65.0859 28.1953C64.3503 28.1953 63.6829 28.0716 63.084 27.8242C62.4915 27.5703 61.9805 27.2155 61.5508 26.7598C61.1276 26.304 60.8021 25.7637 60.5742 25.1387C60.3464 24.5137 60.2324 23.8301 60.2324 23.0879V22.6777C60.2324 21.8184 60.3594 21.0534 60.6133 20.3828C60.8672 19.7057 61.2122 19.1328 61.6484 18.6641C62.0846 18.1953 62.5794 17.8405 63.1328 17.5996C63.6862 17.3587 64.2591 17.2383 64.8516 17.2383C65.6068 17.2383 66.2578 17.3685 66.8047 17.6289C67.3581 17.8893 67.8105 18.2539 68.1621 18.7227C68.5137 19.1849 68.7741 19.7318 68.9434 20.3633C69.1126 20.9883 69.1973 21.6719 69.1973 22.4141V23.2246H61.3066V21.75H67.3906V21.6133C67.3646 21.1445 67.2669 20.6888 67.0977 20.2461C66.9349 19.8034 66.6745 19.4388 66.3164 19.1523C65.9583 18.8659 65.4701 18.7227 64.8516 18.7227C64.4414 18.7227 64.0638 18.8105 63.7188 18.9863C63.3737 19.1556 63.0775 19.4095 62.8301 19.748C62.5827 20.0866 62.3906 20.5 62.2539 20.9883C62.1172 21.4766 62.0488 22.0397 62.0488 22.6777V23.0879C62.0488 23.5892 62.1172 24.0612 62.2539 24.5039C62.3971 24.9401 62.6022 25.3242 62.8691 25.6562C63.1426 25.9883 63.4714 26.2487 63.8555 26.4375C64.2461 26.6263 64.6888 26.7207 65.1836 26.7207C65.8216 26.7207 66.362 26.5905 66.8047 26.3301C67.2474 26.0697 67.6348 25.7214 67.9668 25.2852L69.0605 26.1543C68.8327 26.4993 68.543 26.8281 68.1914 27.1406C67.8398 27.4531 67.4069 27.707 66.8926 27.9023C66.3848 28.0977 65.7826 28.1953 65.0859 28.1953ZM73.1133 19.6895V28H71.3066V17.4336H73.0156L73.1133 19.6895ZM72.6836 22.3164L71.9316 22.2871C71.9382 21.5645 72.0456 20.8971 72.2539 20.2852C72.4622 19.6667 72.7552 19.1296 73.1328 18.6738C73.5104 18.2181 73.9596 17.8665 74.4805 17.6191C75.0078 17.3652 75.5905 17.2383 76.2285 17.2383C76.7493 17.2383 77.2181 17.3099 77.6348 17.4531C78.0514 17.5898 78.4062 17.8112 78.6992 18.1172C78.9987 18.4232 79.2266 18.8203 79.3828 19.3086C79.5391 19.7904 79.6172 20.3796 79.6172 21.0762V28H77.8008V21.0566C77.8008 20.5033 77.7194 20.0605 77.5566 19.7285C77.3939 19.39 77.1562 19.1458 76.8438 18.9961C76.5312 18.8398 76.1471 18.7617 75.6914 18.7617C75.2422 18.7617 74.832 18.8561 74.4609 19.0449C74.0964 19.2337 73.7806 19.4941 73.5137 19.8262C73.2533 20.1582 73.0482 20.5391 72.8984 20.9688C72.7552 21.3919 72.6836 21.8411 72.6836 22.3164ZM84.168 19.6895V28H82.3613V17.4336H84.0703L84.168 19.6895ZM83.7383 22.3164L82.9863 22.2871C82.9928 21.5645 83.1003 20.8971 83.3086 20.2852C83.5169 19.6667 83.8099 19.1296 84.1875 18.6738C84.5651 18.2181 85.0143 17.8665 85.5352 17.6191C86.0625 17.3652 86.6452 17.2383 87.2832 17.2383C87.804 17.2383 88.2728 17.3099 88.6895 17.4531C89.1061 17.5898 89.4609 17.8112 89.7539 18.1172C90.0534 18.4232 90.2812 18.8203 90.4375 19.3086C90.5938 19.7904 90.6719 20.3796 90.6719 21.0762V28H88.8555V21.0566C88.8555 20.5033 88.7741 20.0605 88.6113 19.7285C88.4486 19.39 88.2109 19.1458 87.8984 18.9961C87.5859 18.8398 87.2018 18.7617 86.7461 18.7617C86.2969 18.7617 85.8867 18.8561 85.5156 19.0449C85.151 19.2337 84.8353 19.4941 84.5684 19.8262C84.3079 20.1582 84.1029 20.5391 83.9531 20.9688C83.8099 21.3919 83.7383 21.8411 83.7383 22.3164ZM92.9375 22.834V22.6094C92.9375 21.8477 93.0482 21.1413 93.2695 20.4902C93.4909 19.8327 93.8099 19.263 94.2266 18.7812C94.6432 18.293 95.1478 17.9154 95.7402 17.6484C96.3327 17.375 96.9967 17.2383 97.7324 17.2383C98.4746 17.2383 99.1419 17.375 99.7344 17.6484C100.333 17.9154 100.841 18.293 101.258 18.7812C101.681 19.263 102.003 19.8327 102.225 20.4902C102.446 21.1413 102.557 21.8477 102.557 22.6094V22.834C102.557 23.5957 102.446 24.3021 102.225 24.9531C102.003 25.6042 101.681 26.1738 101.258 26.6621C100.841 27.1439 100.337 27.5215 99.7441 27.7949C99.1582 28.0618 98.4941 28.1953 97.752 28.1953C97.0098 28.1953 96.3424 28.0618 95.75 27.7949C95.1576 27.5215 94.6497 27.1439 94.2266 26.6621C93.8099 26.1738 93.4909 25.6042 93.2695 24.9531C93.0482 24.3021 92.9375 23.5957 92.9375 22.834ZM94.7441 22.6094V22.834C94.7441 23.3613 94.806 23.8594 94.9297 24.3281C95.0534 24.7904 95.2389 25.2005 95.4863 25.5586C95.7402 25.9167 96.056 26.1999 96.4336 26.4082C96.8112 26.61 97.2507 26.7109 97.752 26.7109C98.2467 26.7109 98.6797 26.61 99.0508 26.4082C99.4284 26.1999 99.7409 25.9167 99.9883 25.5586C100.236 25.2005 100.421 24.7904 100.545 24.3281C100.675 23.8594 100.74 23.3613 100.74 22.834V22.6094C100.74 22.0885 100.675 21.597 100.545 21.1348C100.421 20.666 100.232 20.2526 99.9785 19.8945C99.7311 19.5299 99.4186 19.2435 99.041 19.0352C98.6699 18.8268 98.2337 18.7227 97.7324 18.7227C97.2376 18.7227 96.8014 18.8268 96.4238 19.0352C96.0527 19.2435 95.7402 19.5299 95.4863 19.8945C95.2389 20.2526 95.0534 20.666 94.9297 21.1348C94.806 21.597 94.7441 22.0885 94.7441 22.6094ZM107.879 26.3691L110.77 17.4336H112.615L108.816 28H107.605L107.879 26.3691ZM105.467 17.4336L108.445 26.418L108.65 28H107.439L103.611 17.4336H105.467ZM120.428 26.1934V20.7539C120.428 20.3372 120.343 19.9759 120.174 19.6699C120.011 19.3574 119.764 19.1165 119.432 18.9473C119.1 18.778 118.689 18.6934 118.201 18.6934C117.745 18.6934 117.345 18.7715 117 18.9277C116.661 19.084 116.395 19.2891 116.199 19.543C116.01 19.7969 115.916 20.0703 115.916 20.3633H114.109C114.109 19.9857 114.207 19.6113 114.402 19.2402C114.598 18.8691 114.878 18.5339 115.242 18.2344C115.613 17.9284 116.056 17.6875 116.57 17.5117C117.091 17.3294 117.671 17.2383 118.309 17.2383C119.077 17.2383 119.754 17.3685 120.34 17.6289C120.932 17.8893 121.395 18.2832 121.727 18.8105C122.065 19.3314 122.234 19.9857 122.234 20.7734V25.6953C122.234 26.0469 122.264 26.4212 122.322 26.8184C122.387 27.2155 122.482 27.5573 122.605 27.8438V28H120.721C120.63 27.7917 120.558 27.515 120.506 27.1699C120.454 26.8184 120.428 26.4928 120.428 26.1934ZM120.74 21.5938L120.76 22.8633H118.934C118.419 22.8633 117.96 22.9056 117.557 22.9902C117.153 23.0684 116.814 23.1888 116.541 23.3516C116.268 23.5143 116.059 23.7194 115.916 23.9668C115.773 24.2077 115.701 24.4909 115.701 24.8164C115.701 25.1484 115.776 25.4512 115.926 25.7246C116.076 25.998 116.3 26.2161 116.6 26.3789C116.906 26.5352 117.28 26.6133 117.723 26.6133C118.276 26.6133 118.764 26.4961 119.188 26.2617C119.611 26.0273 119.946 25.7409 120.193 25.4023C120.447 25.0638 120.584 24.735 120.604 24.416L121.375 25.2852C121.329 25.5586 121.206 25.8613 121.004 26.1934C120.802 26.5254 120.532 26.8444 120.193 27.1504C119.861 27.4499 119.464 27.7005 119.002 27.9023C118.546 28.0977 118.032 28.1953 117.459 28.1953C116.743 28.1953 116.115 28.0553 115.574 27.7754C115.04 27.4954 114.624 27.1211 114.324 26.6523C114.031 26.1771 113.885 25.6465 113.885 25.0605C113.885 24.4941 113.995 23.9961 114.217 23.5664C114.438 23.1302 114.757 22.7689 115.174 22.4824C115.59 22.1895 116.092 21.9681 116.678 21.8184C117.264 21.6686 117.918 21.5938 118.641 21.5938H120.74ZM140.818 20.9199V26.125C140.643 26.3854 140.363 26.6784 139.979 27.0039C139.594 27.3229 139.064 27.6029 138.387 27.8438C137.716 28.0781 136.85 28.1953 135.789 28.1953C134.923 28.1953 134.126 28.0456 133.396 27.7461C132.674 27.4401 132.046 26.9974 131.512 26.418C130.984 25.832 130.574 25.1224 130.281 24.2891C129.995 23.4492 129.852 22.4987 129.852 21.4375V20.334C129.852 19.2728 129.975 18.3255 130.223 17.4922C130.477 16.6589 130.848 15.9525 131.336 15.373C131.824 14.7871 132.423 14.3444 133.133 14.0449C133.842 13.7389 134.656 13.5859 135.574 13.5859C136.661 13.5859 137.57 13.7747 138.299 14.1523C139.035 14.5234 139.607 15.0378 140.018 15.6953C140.434 16.3529 140.701 17.1016 140.818 17.9414H138.934C138.849 17.4271 138.68 16.9583 138.426 16.5352C138.178 16.112 137.824 15.7734 137.361 15.5195C136.899 15.2591 136.303 15.1289 135.574 15.1289C134.917 15.1289 134.347 15.2493 133.865 15.4902C133.383 15.7311 132.986 16.0762 132.674 16.5254C132.361 16.9746 132.127 17.5182 131.971 18.1562C131.821 18.7943 131.746 19.5137 131.746 20.3145V21.4375C131.746 22.2578 131.84 22.9902 132.029 23.6348C132.225 24.2793 132.501 24.8294 132.859 25.2852C133.217 25.7344 133.644 26.0762 134.139 26.3105C134.64 26.5449 135.193 26.6621 135.799 26.6621C136.469 26.6621 137.013 26.6068 137.43 26.4961C137.846 26.3789 138.172 26.2422 138.406 26.0859C138.641 25.9232 138.82 25.7702 138.943 25.627V22.4434H135.652V20.9199H140.818ZM145.477 19.0938V28H143.67V17.4336H145.428L145.477 19.0938ZM148.777 17.375L148.768 19.0547C148.618 19.0221 148.475 19.0026 148.338 18.9961C148.208 18.9831 148.058 18.9766 147.889 18.9766C147.472 18.9766 147.104 19.0417 146.785 19.1719C146.466 19.3021 146.196 19.4844 145.975 19.7188C145.753 19.9531 145.577 20.2331 145.447 20.5586C145.324 20.8776 145.242 21.2292 145.203 21.6133L144.695 21.9062C144.695 21.2682 144.757 20.6693 144.881 20.1094C145.011 19.5495 145.21 19.0547 145.477 18.625C145.743 18.1888 146.082 17.8503 146.492 17.6094C146.909 17.362 147.404 17.2383 147.977 17.2383C148.107 17.2383 148.257 17.2546 148.426 17.2871C148.595 17.3132 148.712 17.3424 148.777 17.375ZM149.773 22.834V22.6094C149.773 21.8477 149.884 21.1413 150.105 20.4902C150.327 19.8327 150.646 19.263 151.062 18.7812C151.479 18.293 151.984 17.9154 152.576 17.6484C153.169 17.375 153.833 17.2383 154.568 17.2383C155.311 17.2383 155.978 17.375 156.57 17.6484C157.169 17.9154 157.677 18.293 158.094 18.7812C158.517 19.263 158.839 19.8327 159.061 20.4902C159.282 21.1413 159.393 21.8477 159.393 22.6094V22.834C159.393 23.5957 159.282 24.3021 159.061 24.9531C158.839 25.6042 158.517 26.1738 158.094 26.6621C157.677 27.1439 157.173 27.5215 156.58 27.7949C155.994 28.0618 155.33 28.1953 154.588 28.1953C153.846 28.1953 153.178 28.0618 152.586 27.7949C151.993 27.5215 151.486 27.1439 151.062 26.6621C150.646 26.1738 150.327 25.6042 150.105 24.9531C149.884 24.3021 149.773 23.5957 149.773 22.834ZM151.58 22.6094V22.834C151.58 23.3613 151.642 23.8594 151.766 24.3281C151.889 24.7904 152.075 25.2005 152.322 25.5586C152.576 25.9167 152.892 26.1999 153.27 26.4082C153.647 26.61 154.087 26.7109 154.588 26.7109C155.083 26.7109 155.516 26.61 155.887 26.4082C156.264 26.1999 156.577 25.9167 156.824 25.5586C157.072 25.2005 157.257 24.7904 157.381 24.3281C157.511 23.8594 157.576 23.3613 157.576 22.834V22.6094C157.576 22.0885 157.511 21.597 157.381 21.1348C157.257 20.666 157.068 20.2526 156.814 19.8945C156.567 19.5299 156.255 19.2435 155.877 19.0352C155.506 18.8268 155.07 18.7227 154.568 18.7227C154.074 18.7227 153.637 18.8268 153.26 19.0352C152.889 19.2435 152.576 19.5299 152.322 19.8945C152.075 20.2526 151.889 20.666 151.766 21.1348C151.642 21.597 151.58 22.0885 151.58 22.6094ZM168.123 25.5586V17.4336H169.939V28H168.211L168.123 25.5586ZM168.465 23.332L169.217 23.3125C169.217 24.0156 169.142 24.6667 168.992 25.2656C168.849 25.8581 168.615 26.3724 168.289 26.8086C167.964 27.2448 167.537 27.5866 167.01 27.834C166.482 28.0749 165.841 28.1953 165.086 28.1953C164.572 28.1953 164.1 28.1204 163.67 27.9707C163.247 27.821 162.882 27.5898 162.576 27.2773C162.27 26.9648 162.033 26.5579 161.863 26.0566C161.701 25.5553 161.619 24.9531 161.619 24.25V17.4336H163.426V24.2695C163.426 24.7448 163.478 25.1387 163.582 25.4512C163.693 25.7572 163.839 26.0013 164.021 26.1836C164.21 26.3594 164.419 26.4831 164.646 26.5547C164.881 26.6263 165.122 26.6621 165.369 26.6621C166.137 26.6621 166.746 26.5156 167.195 26.2227C167.645 25.9232 167.967 25.5228 168.162 25.0215C168.364 24.5137 168.465 23.9505 168.465 23.332ZM174.5 19.4648V32.0625H172.684V17.4336H174.344L174.5 19.4648ZM181.619 22.6289V22.834C181.619 23.6022 181.528 24.3151 181.346 24.9727C181.163 25.6237 180.896 26.1901 180.545 26.6719C180.2 27.1536 179.773 27.528 179.266 27.7949C178.758 28.0618 178.175 28.1953 177.518 28.1953C176.847 28.1953 176.255 28.0846 175.74 27.8633C175.226 27.6419 174.79 27.3197 174.432 26.8965C174.074 26.4733 173.787 25.9655 173.572 25.373C173.364 24.7806 173.221 24.1133 173.143 23.3711V22.2773C173.221 21.4961 173.367 20.7962 173.582 20.1777C173.797 19.5592 174.08 19.0319 174.432 18.5957C174.79 18.153 175.223 17.8177 175.73 17.5898C176.238 17.3555 176.824 17.2383 177.488 17.2383C178.152 17.2383 178.742 17.3685 179.256 17.6289C179.77 17.8828 180.203 18.2474 180.555 18.7227C180.906 19.1979 181.17 19.7676 181.346 20.4316C181.528 21.0892 181.619 21.8216 181.619 22.6289ZM179.803 22.834V22.6289C179.803 22.1016 179.747 21.6068 179.637 21.1445C179.526 20.6758 179.354 20.2656 179.119 19.9141C178.891 19.556 178.598 19.276 178.24 19.0742C177.882 18.8659 177.456 18.7617 176.961 18.7617C176.505 18.7617 176.108 18.8398 175.77 18.9961C175.438 19.1523 175.154 19.3639 174.92 19.6309C174.686 19.8913 174.493 20.1908 174.344 20.5293C174.201 20.8613 174.093 21.2064 174.021 21.5645V24.0938C174.152 24.5495 174.334 24.9792 174.568 25.3828C174.803 25.7799 175.115 26.1022 175.506 26.3496C175.896 26.5905 176.388 26.7109 176.98 26.7109C177.469 26.7109 177.889 26.61 178.24 26.4082C178.598 26.1999 178.891 25.9167 179.119 25.5586C179.354 25.2005 179.526 24.7904 179.637 24.3281C179.747 23.8594 179.803 23.3613 179.803 22.834Z" fill="#092D55"/>
</svg>
